<?xml version="1.0" encoding="utf-8"?>
<!-- Generator: Adobe Illustrator 25.2.3, SVG Export Plug-In . SVG Version: 6.00 Build 0)  -->
<svg version="1.1" id="Layer_1" xmlns="http://www.w3.org/2000/svg" xmlns:xlink="http://www.w3.org/1999/xlink" x="0px" y="0px"
	 viewBox="0 0 80 80" style="enable-background:new 0 0 80 80;" xml:space="preserve">
<style type="text/css">
	.st0{fill:#3E363F;}
	.st1{fill:#EAF3D3;}
	.st2{fill:#FFBE2E;}
	.st3{fill:#95C122;}
	.st4{fill:#CAE091;}
	.st5{fill:#FFEECC;}
	.st6{fill:#FFFFFF;}
</style>
<ellipse class="st0" cx="18.4" cy="60.6" rx="0.7" ry="0.4"/>
<ellipse class="st0" cx="21" cy="59.1" rx="0.7" ry="0.4"/>
<ellipse class="st0" cx="23.5" cy="57.7" rx="0.7" ry="0.4"/>
<path class="st0" d="M26.5,55.9c0.3,0.2,0.3,0.4,0,0.6c-0.3,0.2-0.7,0.2-1,0c-0.3-0.2-0.3-0.4,0-0.6C25.8,55.8,26.2,55.8,26.5,55.9z
	"/>
<path class="st0" d="M29,54.5c0.3,0.2,0.3,0.4,0,0.6c-0.3,0.2-0.7,0.2-1,0c-0.3-0.2-0.3-0.4,0-0.6C28.3,54.3,28.7,54.3,29,54.5z"/>
<path class="st0" d="M16.4,58.9c0.3,0.2,0.3,0.4,0,0.6c-0.3,0.2-0.7,0.2-1,0c-0.3-0.2-0.3-0.4,0-0.6C15.7,58.7,16.1,58.7,16.4,58.9z
	"/>
<path class="st0" d="M18.9,57.4c0.2,0.1,0.2,0.2,0.2,0.4c0,0.1-0.1,0.1-0.2,0.2c-0.3,0.2-0.7,0.2-1,0c-0.3-0.2-0.3-0.4,0-0.6
	C18.2,57.2,18.6,57.2,18.9,57.4z"/>
<path class="st0" d="M21.5,55.9c0.2,0.1,0.2,0.2,0.2,0.4c0,0.1-0.1,0.1-0.2,0.2c-0.3,0.2-0.7,0.2-1,0c-0.3-0.2-0.3-0.4,0-0.6
	C20.8,55.8,21.1,55.8,21.5,55.9z"/>
<path class="st0" d="M24,54.5c0.3,0.2,0.3,0.4,0,0.6c-0.3,0.2-0.7,0.2-1,0c-0.3-0.2-0.3-0.4,0-0.6C23.3,54.3,23.7,54.3,24,54.5z"/>
<ellipse class="st0" cx="26" cy="53.3" rx="0.7" ry="0.4"/>
<ellipse class="st0" cx="13.4" cy="57.7" rx="0.7" ry="0.4"/>
<ellipse class="st0" cx="15.9" cy="56.2" rx="0.7" ry="0.4"/>
<ellipse class="st0" cx="18.4" cy="54.8" rx="0.7" ry="0.4"/>
<ellipse class="st0" cx="21" cy="53.3" rx="0.7" ry="0.4"/>
<path class="st0" d="M24,51.5c0.3,0.2,0.3,0.4,0,0.6c-0.3,0.2-0.7,0.2-1,0c-0.3-0.2-0.3-0.4,0-0.6C23.3,51.4,23.7,51.4,24,51.5z"/>
<path class="st0" d="M11.3,55.9c0.3,0.2,0.3,0.4,0,0.6c-0.3,0.2-0.7,0.2-1,0c-0.2-0.1-0.2-0.2-0.2-0.4c0-0.1,0.1-0.1,0.2-0.2
	C10.6,55.8,11,55.8,11.3,55.9z"/>
<path class="st0" d="M13.9,54.5c0.3,0.2,0.3,0.4,0,0.6c-0.3,0.2-0.7,0.2-1,0c-0.3-0.2-0.3-0.4,0-0.6C13.2,54.3,13.5,54.3,13.9,54.5z
	"/>
<path class="st0" d="M16.4,53c0.3,0.2,0.3,0.4,0,0.5c-0.3,0.2-0.7,0.2-1,0c-0.3-0.2-0.3-0.4,0-0.5C15.7,52.8,16.1,52.8,16.4,53z"/>
<path class="st0" d="M18.9,51.5c0.2,0.1,0.2,0.2,0.2,0.4c0,0.1-0.1,0.1-0.2,0.2c-0.3,0.2-0.7,0.2-1,0c-0.3-0.2-0.3-0.4,0-0.6
	C18.2,51.4,18.6,51.4,18.9,51.5z"/>
<ellipse class="st0" cx="21" cy="50.4" rx="0.7" ry="0.4"/>
<ellipse class="st0" cx="8.3" cy="54.8" rx="0.7" ry="0.4"/>
<path class="st0" d="M11.3,53c0.3,0.2,0.3,0.4,0,0.5c-0.3,0.2-0.7,0.2-1,0c-0.2-0.1-0.2-0.2-0.2-0.4c0-0.1,0.1-0.2,0.2-0.2
	C10.6,52.8,11,52.8,11.3,53z"/>
<path class="st0" d="M13.9,51.5c0.3,0.2,0.3,0.4,0,0.6c-0.3,0.2-0.7,0.2-1,0c-0.3-0.2-0.3-0.4,0-0.6C13.2,51.4,13.5,51.4,13.9,51.5z
	"/>
<ellipse class="st0" cx="15.9" cy="50.4" rx="0.7" ry="0.4"/>
<ellipse class="st0" cx="18.4" cy="48.9" rx="0.7" ry="0.4"/>
<ellipse class="st0" cx="5.8" cy="53.3" rx="0.7" ry="0.4"/>
<ellipse class="st0" cx="8.3" cy="51.8" rx="0.7" ry="0.4"/>
<path class="st0" d="M11.3,50.1c0.3,0.2,0.3,0.4,0,0.6c-0.3,0.2-0.7,0.2-1,0c-0.3-0.2-0.3-0.4,0-0.6C10.6,49.9,11,49.9,11.3,50.1z"
	/>
<ellipse class="st0" cx="13.4" cy="48.9" rx="0.7" ry="0.4"/>
<path class="st0" d="M16.4,47.1c0.3,0.2,0.3,0.4,0,0.6c-0.3,0.2-0.7,0.2-1,0c-0.2-0.1-0.2-0.2-0.2-0.4c0-0.1,0.1-0.1,0.2-0.2
	C15.7,47,16,47,16.4,47.1z"/>
<path class="st0" d="M6.2,50.1c0.3,0.2,0.3,0.4,0,0.6c-0.3,0.2-0.7,0.2-1,0c-0.3-0.2-0.3-0.4,0-0.6C5.5,49.9,5.9,49.9,6.2,50.1z"/>
<path class="st0" d="M8.8,48.6C9,48.8,9,49,8.8,49.2c-0.3,0.2-0.7,0.2-1,0c-0.3-0.2-0.3-0.4,0-0.5C8.1,48.4,8.5,48.4,8.8,48.6z"/>
<path class="st0" d="M11.3,47.1c0.3,0.2,0.3,0.4,0,0.6c-0.3,0.2-0.7,0.2-1,0C10.1,47.6,11,47,11.3,47.1z"/>
<path class="st0" d="M13.8,45.7c0.3,0.2,0.3,0.4,0,0.6c-0.3,0.2-0.7,0.2-1,0C12.6,46.1,13.6,45.5,13.8,45.7z"/>
<ellipse class="st0" cx="48.9" cy="69.1" rx="0.7" ry="0.4"/>
<path class="st0" d="M51.9,67.4c0.2,0,0.2,0.2,0.2,0.4c0,0.1-0.1,0.2-0.2,0.2c-0.3,0.2-0.7,0.2-1,0c-0.2-0.1-0.2-0.2-0.2-0.4
	c0-0.1,0.1-0.1,0.2-0.2C51.3,67.2,51.6,67.2,51.9,67.4z"/>
<ellipse class="st0" cx="33.7" cy="75" rx="0.7" ry="0.4"/>
<path class="st0" d="M36.8,73.3c0.3,0.2,0.3,0.4,0,0.6c-0.3,0.2-0.7,0.2-1,0c-0.3-0.2-0.3-0.4,0-0.6C36.1,73.1,36.4,73.1,36.8,73.3z
	"/>
<path class="st0" d="M39.3,71.8c0.2,0.1,0.2,0.2,0.2,0.4c0,0.1-0.1,0.1-0.2,0.2c-0.3,0.2-0.7,0.2-1,0c-0.3-0.2-0.3-0.4,0-0.6
	C38.6,71.6,39,71.6,39.3,71.8z"/>
<path class="st0" d="M41.8,70.3c0.2,0.1,0.2,0.2,0.2,0.4c0,0.1-0.1,0.1-0.2,0.2c-0.3,0.2-0.7,0.2-1,0c-0.3-0.2-0.3-0.4,0-0.6
	C41.1,70.2,41.5,70.2,41.8,70.3z"/>
<ellipse class="st0" cx="43.9" cy="69.1" rx="0.7" ry="0.4"/>
<path class="st0" d="M46.9,67.4c0.2,0,0.2,0.2,0.2,0.4c0,0.1-0.1,0.2-0.2,0.2c-0.3,0.2-0.7,0.2-1,0c-0.2,0-0.2-0.2-0.2-0.4
	c0-0.1,0.1-0.2,0.2-0.2C46.2,67.2,46.6,67.2,46.9,67.4z"/>
<path class="st0" d="M49.4,66c0.3,0.2,0.3,0.4,0,0.6c-0.3,0.2-0.7,0.2-1,0c-0.2-0.1-0.2-0.2-0.2-0.4c0-0.1,0.1-0.1,0.2-0.2
	C48.7,65.8,49.1,65.8,49.4,66z"/>
<path class="st0" d="M29.2,74.7c0.3,0.2,0.3,0.4,0,0.6c-0.3,0.2-0.7,0.2-1,0C28,75.2,27.9,75,28,74.9c0-0.1,0.1-0.1,0.2-0.2
	C28.5,74.5,28.9,74.5,29.2,74.7z"/>
<path class="st0" d="M31.7,73.3c0.3,0.2,0.3,0.4,0,0.6c-0.3,0.2-0.7,0.2-1,0c-0.2-0.1-0.2-0.2-0.2-0.4c0-0.1,0.1-0.2,0.2-0.2
	C31,73.1,31.4,73.1,31.7,73.3z"/>
<path class="st0" d="M34.2,71.8c0.3,0.2,0.3,0.4,0,0.6c-0.3,0.2-0.7,0.2-1,0c-0.3-0.2-0.3-0.4,0-0.6C33.5,71.6,33.9,71.6,34.2,71.8z
	"/>
<path class="st0" d="M36.8,70.3c0.3,0.2,0.3,0.4,0,0.6c-0.3,0.2-0.7,0.2-1,0c-0.3-0.2-0.3-0.4,0-0.6C36.1,70.2,36.4,70.2,36.8,70.3z
	"/>
<ellipse class="st0" cx="38.8" cy="69.1" rx="0.7" ry="0.4"/>
<path class="st0" d="M41.8,67.4c0.2,0.1,0.2,0.2,0.2,0.4c0,0.1-0.1,0.1-0.2,0.2c-0.3,0.2-0.7,0.2-1,0c-0.2,0-0.2-0.2-0.2-0.4
	c0-0.1,0.1-0.2,0.2-0.2C41.1,67.2,41.5,67.2,41.8,67.4z"/>
<ellipse class="st0" cx="43.9" cy="66.2" rx="0.7" ry="0.4"/>
<ellipse class="st0" cx="46.4" cy="64.8" rx="0.7" ry="0.4"/>
<ellipse class="st0" cx="26.1" cy="73.5" rx="0.7" ry="0.4"/>
<ellipse class="st0" cx="28.7" cy="72.1" rx="0.7" ry="0.4"/>
<ellipse class="st0" cx="31.2" cy="70.6" rx="0.7" ry="0.4"/>
<path class="st0" d="M34.2,68.9c0.3,0.2,0.3,0.4,0,0.6c-0.3,0.2-0.7,0.2-1,0c-0.3-0.2-0.3-0.4,0-0.6C33.5,68.7,33.9,68.7,34.2,68.9z
	"/>
<path class="st0" d="M36.8,67.4c0.2,0,0.2,0.2,0.2,0.4c0,0.1-0.1,0.2-0.2,0.2c-0.3,0.2-0.7,0.2-1,0c-0.2,0-0.2-0.2-0.2-0.4
	c0-0.1,0.1-0.2,0.2-0.2C36.1,67.2,36.4,67.2,36.8,67.4z"/>
<path class="st0" d="M39.3,66c0.2,0.1,0.2,0.2,0.2,0.4c0,0.1-0.1,0.1-0.2,0.2c-0.3,0.2-0.7,0.2-1,0c-0.3-0.2-0.3-0.4,0-0.6
	C38.6,65.8,39,65.8,39.3,66z"/>
<path class="st0" d="M41.8,64.5c0.2,0.1,0.2,0.2,0.2,0.4c0,0.1-0.1,0.1-0.2,0.2c-0.3,0.2-0.7,0.2-1,0c-0.3-0.2-0.3-0.4,0-0.6
	C41.1,64.3,41.5,64.3,41.8,64.5z"/>
<path class="st0" d="M44.3,63c0.3,0.2,0.3,0.4,0,0.6c-0.3,0.2-0.7,0.2-1,0c-0.3-0.2-0.3-0.4,0-0.6C43.7,62.8,44,62.8,44.3,63z"/>
<path class="st0" d="M24.1,71.8c0.3,0.2,0.3,0.4,0,0.6c-0.3,0.2-0.7,0.2-1,0c-0.3-0.2-0.3-0.4,0-0.6C23.4,71.6,23.8,71.6,24.1,71.8z
	"/>
<path class="st0" d="M26.6,70.3c0.3,0.2,0.3,0.4,0,0.6c-0.3,0.2-0.7,0.2-1,0c-0.3-0.2-0.3-0.4,0-0.6C25.9,70.2,26.3,70.2,26.6,70.3z
	"/>
<path class="st0" d="M29.2,68.9c0.3,0.2,0.3,0.4,0,0.6c-0.3,0.2-0.7,0.2-1,0C28,69.4,27.9,69.2,28,69c0-0.1,0.1-0.1,0.2-0.2
	C28.5,68.7,28.8,68.7,29.2,68.9z"/>
<ellipse class="st0" cx="31.2" cy="67.7" rx="0.7" ry="0.4"/>
<ellipse class="st0" cx="33.7" cy="66.2" rx="0.7" ry="0.4"/>
<path class="st0" d="M36.8,64.5c0.3,0.2,0.3,0.4,0,0.6c-0.3,0.2-0.7,0.2-1,0c-0.3-0.2-0.3-0.4,0-0.6C36.1,64.3,36.4,64.3,36.8,64.5z
	"/>
<path class="st0" d="M39.3,63c0.2,0.1,0.2,0.2,0.2,0.4c0,0.1-0.1,0.1-0.2,0.2c-0.3,0.2-0.7,0.2-1,0c-0.3-0.2-0.3-0.4,0-0.6
	C38.6,62.8,39,62.8,39.3,63z"/>
<path class="st0" d="M41.8,61.6c0.2,0.1,0.2,0.2,0.2,0.4c0,0.1-0.1,0.1-0.2,0.2c-0.3,0.2-0.7,0.2-1,0c-0.3-0.2-0.3-0.4,0-0.6
	C41.1,61.4,41.5,61.4,41.8,61.6z"/>
<path class="st0" d="M21.5,70.3c0.2,0.1,0.2,0.2,0.2,0.4c0,0.1-0.1,0.1-0.2,0.2c-0.3,0.2-0.7,0.2-1,0c-0.3-0.2-0.3-0.4,0-0.6
	C20.9,70.1,21.2,70.1,21.5,70.3z"/>
<path class="st0" d="M24.1,68.9c0.2,0.1,0.2,0.2,0.2,0.4c0,0.1-0.1,0.1-0.2,0.2c-0.3,0.2-0.7,0.2-1,0c-0.3-0.2-0.3-0.4,0-0.6
	C23.4,68.7,23.8,68.7,24.1,68.9z"/>
<path class="st0" d="M26.6,67.4c0.3,0.2,0.3,0.4,0,0.6c-0.3,0.2-0.7,0.2-1,0c-0.3-0.2-0.3-0.4,0-0.6C25.9,67.2,26.3,67.2,26.6,67.4z
	"/>
<ellipse class="st0" cx="28.7" cy="66.2" rx="0.7" ry="0.4"/>
<ellipse class="st0" cx="31.2" cy="64.7" rx="0.7" ry="0.4"/>
<ellipse class="st0" cx="33.7" cy="63.3" rx="0.7" ry="0.4"/>
<path class="st0" d="M36.7,61.5c0.3,0.2,0.3,0.4,0,0.6c-0.3,0.2-0.7,0.2-1,0c-0.2-0.1-0.2-0.2-0.2-0.4c0-0.1,0.1-0.1,0.2-0.2
	C36,61.4,36.4,61.4,36.7,61.5z"/>
<path class="st0" d="M39.3,60.1c0.3,0.2,0.3,0.4,0,0.6c-0.3,0.2-0.7,0.2-1,0c-0.3-0.2-0.3-0.4,0-0.6C38.6,59.9,39,59.9,39.3,60.1z"
	/>
<ellipse class="st0" cx="18.5" cy="69.1" rx="0.7" ry="0.4"/>
<path class="st0" d="M21.5,67.4c0.2,0.1,0.2,0.2,0.2,0.4c0,0.1-0.1,0.2-0.2,0.2c-0.3,0.2-0.7,0.2-1,0c-0.3-0.2-0.3-0.4,0-0.6
	C20.9,67.2,21.2,67.2,21.5,67.4z"/>
<ellipse class="st0" cx="23.6" cy="66.2" rx="0.7" ry="0.4"/>
<path class="st0" d="M26.6,64.5c0.3,0.2,0.3,0.4,0,0.6c-0.3,0.2-0.7,0.2-1,0c-0.3-0.2-0.3-0.4,0-0.6C25.9,64.3,26.3,64.3,26.6,64.5z
	"/>
<ellipse class="st0" cx="28.7" cy="63.3" rx="0.7" ry="0.4"/>
<path class="st0" d="M31.7,61.5c0.3,0.2,0.3,0.4,0,0.6c-0.3,0.2-0.7,0.2-1,0c-0.2-0.1-0.2-0.2-0.2-0.4c0-0.1,0.1-0.1,0.2-0.2
	C31,61.4,31.4,61.4,31.7,61.5z"/>
<path class="st0" d="M34.2,60.1c0.3,0.2,0.3,0.4,0,0.6c-0.3,0.2-0.7,0.2-1,0C33,60.6,33,60.4,33,60.3c0-0.1,0.1-0.1,0.2-0.2
	C33.5,59.9,33.9,59.9,34.2,60.1z"/>
<ellipse class="st0" cx="36.2" cy="58.9" rx="0.7" ry="0.4"/>
<path class="st0" d="M16.5,67.4c0.3,0.2,0.3,0.4,0,0.6c-0.3,0.2-0.7,0.2-1,0c-0.3-0.2-0.3-0.4,0-0.6C15.8,67.2,16.2,67.2,16.5,67.4z
	"/>
<path class="st0" d="M19,65.9c0.3,0.2,0.3,0.4,0,0.6c-0.3,0.2-0.7,0.2-1,0c-0.3-0.2-0.3-0.4,0-0.6C18.3,65.8,18.7,65.8,19,65.9z"/>
<ellipse class="st0" cx="21.1" cy="64.7" rx="0.7" ry="0.4"/>
<ellipse class="st0" cx="23.6" cy="63.3" rx="0.7" ry="0.4"/>
<ellipse class="st0" cx="26.1" cy="61.8" rx="0.7" ry="0.4"/>
<ellipse class="st0" cx="28.7" cy="60.4" rx="0.7" ry="0.4"/>
<ellipse class="st0" cx="31.2" cy="58.9" rx="0.7" ry="0.4"/>
<path class="st0" d="M34.2,57.2c0.3,0.2,0.3,0.4,0,0.5c-0.3,0.2-0.7,0.2-1,0C33,57.7,33,57.5,33,57.4c0-0.1,0.1-0.2,0.2-0.2
	C33.5,57,33.9,57,34.2,57.2z"/>
<ellipse class="st0" cx="16" cy="64.7" rx="0.7" ry="0.4"/>
<path class="st0" d="M19,63c0.3,0.2,0.3,0.4,0,0.6c-0.3,0.2-0.7,0.2-1,0c-0.3-0.2-0.3-0.4,0-0.6C18.3,62.8,18.7,62.8,19,63z"/>
<path class="st0" d="M21.5,61.5c0.2,0.1,0.2,0.2,0.2,0.4c0,0.1-0.1,0.1-0.2,0.2c-0.3,0.2-0.7,0.2-1,0c-0.3-0.2-0.3-0.4,0-0.6
	C20.9,61.4,21.2,61.4,21.5,61.5z"/>
<path class="st0" d="M24.1,60.1c0.2,0.1,0.2,0.2,0.2,0.4c0,0.1-0.1,0.1-0.2,0.2c-0.3,0.2-0.7,0.2-1,0c-0.3-0.2-0.3-0.4,0-0.6
	C23.4,59.9,23.8,59.9,24.1,60.1z"/>
<path class="st0" d="M26.6,58.6c0.3,0.2,0.3,0.4,0,0.6c-0.3,0.2-0.7,0.2-1,0c-0.3-0.2-0.3-0.4,0-0.6C25.9,58.5,26.3,58.5,26.6,58.6z
	"/>
<path class="st0" d="M29.1,57.2c0.3,0.2,0.3,0.4,0,0.5c-0.3,0.2-0.7,0.2-1,0c-0.3-0.2-0.3-0.4,0-0.5C28.4,57,28.8,57,29.1,57.2z"/>
<ellipse class="st0" cx="31.2" cy="56" rx="0.7" ry="0.4"/>
<ellipse class="st0" cx="31.1" cy="53.3" rx="0.7" ry="0.4"/>
<path class="st0" d="M34.1,51.6c0.3,0.2,0.3,0.4,0,0.6c-0.3,0.2-0.7,0.2-1,0c-0.2-0.1-0.2-0.2-0.2-0.4c0-0.1,0.1-0.1,0.2-0.2
	C33.4,51.4,33.8,51.4,34.1,51.6z"/>
<path class="st0" d="M36.6,50.1c0.3,0.2,0.3,0.4,0,0.6c-0.3,0.2-0.7,0.2-1,0c-0.2-0.1-0.2-0.2-0.2-0.4c0-0.1,0.1-0.1,0.2-0.2
	C36,49.9,36.3,49.9,36.6,50.1z"/>
<path class="st0" d="M39.2,48.6c0.3,0.2,0.3,0.4,0,0.6c-0.3,0.2-0.7,0.2-1,0C38,49.2,37.9,49,38,48.8c0-0.1,0.1-0.1,0.2-0.2
	C38.5,48.5,38.9,48.5,39.2,48.6z"/>
<path class="st0" d="M41.7,47.2c0.3,0.2,0.3,0.4,0,0.6c-0.3,0.2-0.7,0.2-1,0c-0.3-0.2-0.3-0.4,0-0.6C41,47,41.4,47,41.7,47.2z"/>
<path class="st0" d="M44.2,45.7c0.2,0.1,0.2,0.2,0.2,0.4c0,0.1-0.1,0.1-0.2,0.2c-0.3,0.2-0.7,0.2-1,0c-0.3-0.2-0.3-0.4,0-0.6
	C43.5,45.6,43.9,45.6,44.2,45.7z"/>
<path class="st0" d="M46.8,44.3c0.2,0.1,0.2,0.2,0.2,0.4c0,0.1-0.1,0.2-0.2,0.2c-0.3,0.2-0.7,0.2-1,0c-0.3-0.2-0.3-0.4,0-0.5
	C46.1,44.1,46.5,44.1,46.8,44.3z"/>
<path class="st0" d="M49.3,42.8c0.2,0.1,0.2,0.2,0.2,0.4c0,0.1-0.1,0.1-0.2,0.2c-0.3,0.2-0.7,0.2-1,0c-0.3-0.2-0.3-0.4,0-0.6
	C48.6,42.6,49,42.6,49.3,42.8z"/>
<path class="st0" d="M51.8,41.3c0.3,0.2,0.3,0.4,0,0.6c-0.3,0.2-0.7,0.2-1,0c-0.3-0.2-0.3-0.4,0-0.6C51.1,41.2,51.5,41.2,51.8,41.3z
	"/>
<path class="st0" d="M54.4,39.9c0.3,0.2,0.3,0.4,0,0.6c-0.3,0.2-0.7,0.2-1,0c-0.3-0.2-0.3-0.4,0-0.6C53.7,39.7,54,39.7,54.4,39.9z"
	/>
<path class="st0" d="M28.1,51.6c0.3-0.2,0.7-0.2,1,0c0.3,0.2,0.3,0.4,0,0.6c-0.3,0.2-0.7,0.2-1,0C27.8,52,27.8,51.7,28.1,51.6z"/>
<path class="st0" d="M31.6,50.1c0.3,0.2,0.3,0.4,0,0.6c-0.3,0.2-0.7,0.2-1,0c-0.3-0.2-0.3-0.4,0-0.6C30.9,49.9,31.3,49.9,31.6,50.1z
	"/>
<path class="st0" d="M34.1,48.6c0.3,0.2,0.3,0.4,0,0.6c-0.3,0.2-0.7,0.2-1,0c-0.2-0.1-0.2-0.2-0.2-0.4c0-0.1,0.1-0.1,0.2-0.2
	C33.4,48.5,33.8,48.5,34.1,48.6z"/>
<path class="st0" d="M36.6,47.2c0.3,0.2,0.3,0.4,0,0.6c-0.3,0.2-0.7,0.2-1,0c-0.2-0.1-0.2-0.2-0.2-0.4c0-0.1,0.1-0.1,0.2-0.2
	C35.9,47,36.3,47,36.6,47.2z"/>
<path class="st0" d="M39.2,45.7c0.3,0.2,0.3,0.4,0,0.6c-0.3,0.2-0.7,0.2-1,0c-0.2-0.1-0.2-0.2-0.2-0.4c0-0.1,0.1-0.1,0.2-0.2
	C38.5,45.6,38.9,45.6,39.2,45.7z"/>
<path class="st0" d="M41.7,44.3c0.3,0.2,0.3,0.4,0,0.5c-0.3,0.2-0.7,0.2-1,0c-0.3-0.2-0.3-0.4,0-0.5C41,44.1,41.4,44.1,41.7,44.3z"
	/>
<ellipse class="st0" cx="43.8" cy="43.1" rx="0.7" ry="0.4"/>
<ellipse class="st0" cx="46.3" cy="41.6" rx="0.7" ry="0.4"/>
<ellipse class="st0" cx="48.8" cy="40.2" rx="0.7" ry="0.4"/>
<path class="st0" d="M25.5,50.1c0.3-0.2,0.7-0.2,1,0c0.3,0.2,0.3,0.4,0,0.6c-0.3,0.2-0.7,0.2-1,0C25.3,50.5,25.3,50.3,25.5,50.1z"/>
<path class="st0" d="M29,48.6c0.3,0.2,0.3,0.4,0,0.6c-0.3,0.2-0.7,0.2-1,0c-0.3-0.2-0.3-0.4,0-0.6C28.4,48.5,28.7,48.5,29,48.6z"/>
<ellipse class="st0" cx="31.1" cy="47.5" rx="0.7" ry="0.4"/>
<path class="st0" d="M34.1,45.7c0.3,0.2,0.3,0.4,0,0.6c-0.3,0.2-0.7,0.2-1,0c-0.2-0.1-0.2-0.2-0.2-0.4c0-0.1,0.1-0.1,0.2-0.2
	C33.4,45.6,33.8,45.6,34.1,45.7z"/>
<path class="st0" d="M36.6,44.3c0.3,0.2,0.3,0.4,0,0.5c-0.3,0.2-0.7,0.2-1,0c-0.2-0.1-0.2-0.2-0.2-0.4c0-0.1,0.1-0.2,0.2-0.2
	C35.9,44.1,36.3,44.1,36.6,44.3z"/>
<path class="st0" d="M39.2,42.8c0.3,0.2,0.3,0.4,0,0.6c-0.3,0.2-0.7,0.2-1,0C38,43.3,37.9,43.1,38,43c0-0.1,0.1-0.1,0.2-0.2
	C38.5,42.6,38.9,42.6,39.2,42.8z"/>
<path class="st0" d="M41.7,41.3c0.3,0.2,0.3,0.4,0,0.6c-0.3,0.2-0.7,0.2-1,0c-0.3-0.2-0.3-0.4,0-0.6C41,41.2,41.4,41.2,41.7,41.3z"
	/>
<path class="st0" d="M44.2,39.9c0.2,0.1,0.2,0.2,0.2,0.4c0,0.1-0.1,0.1-0.2,0.2c-0.3,0.2-0.7,0.2-1,0c-0.3-0.2-0.3-0.4,0-0.6
	C43.6,39.7,43.9,39.7,44.2,39.9z"/>
<path class="st0" d="M23,48.6c0.3-0.2,0.7-0.2,1,0c0.3,0.2,0.3,0.4,0,0.6c-0.3,0.2-0.7,0.2-1,0c-0.2-0.1-0.2-0.2-0.2-0.4
	C22.9,48.7,22.9,48.7,23,48.6z"/>
<path class="st0" d="M26.5,47.2c0.2,0.1,0.2,0.2,0.2,0.4c0,0.1-0.1,0.1-0.2,0.2c-0.3,0.2-0.7,0.2-1,0c-0.3-0.2-0.3-0.4,0-0.6
	C25.8,47,26.2,47,26.5,47.2z"/>
<path class="st0" d="M29,45.7c0.3,0.2,0.3,0.4,0,0.6c-0.3,0.2-0.7,0.2-1,0c-0.3-0.2-0.3-0.4,0-0.6C28.4,45.6,28.7,45.6,29,45.7z"/>
<ellipse class="st0" cx="31.1" cy="44.5" rx="0.7" ry="0.4"/>
<path class="st0" d="M34.1,42.8c0.3,0.2,0.3,0.4,0,0.6c-0.3,0.2-0.7,0.2-1,0c-0.2-0.1-0.2-0.2-0.2-0.4c0-0.1,0.1-0.1,0.2-0.2
	C33.4,42.6,33.8,42.6,34.1,42.8z"/>
<path class="st0" d="M36.6,41.3c0.3,0.2,0.3,0.4,0,0.6c-0.3,0.2-0.7,0.2-1,0c-0.2-0.1-0.2-0.2-0.2-0.4c0-0.1,0.1-0.1,0.2-0.2
	C36,41.2,36.3,41.2,36.6,41.3z"/>
<ellipse class="st0" cx="38.7" cy="40.2" rx="0.7" ry="0.4"/>
<path class="st0" d="M20.5,47.2c0.3-0.2,0.7-0.2,1,0c0.3,0.2,0.3,0.4,0,0.6c-0.3,0.2-0.7,0.2-1,0c-0.2-0.1-0.2-0.2-0.2-0.4
	C20.3,47.3,20.4,47.2,20.5,47.2z"/>
<ellipse class="st0" cx="23.5" cy="46" rx="0.7" ry="0.4"/>
<ellipse class="st0" cx="26" cy="44.5" rx="0.7" ry="0.4"/>
<ellipse class="st0" cx="28.6" cy="43.1" rx="0.7" ry="0.4"/>
<ellipse class="st0" cx="31.1" cy="41.6" rx="0.7" ry="0.4"/>
<path class="st0" d="M33.1,39.9c0.3-0.2,0.7-0.2,1,0c0.3,0.2,0.3,0.4,0,0.6c-0.3,0.2-0.7,0.2-1,0c-0.2-0.1-0.2-0.2-0.2-0.4
	C33,40,33.1,39.9,33.1,39.9C33.4,39.7,32.9,40,33.1,39.9z"/>
<path class="st0" d="M17.9,45.7c0.3-0.2,0.7-0.2,1,0c0.3,0.2,0.3,0.4,0,0.6c-0.3,0.2-0.7,0.2-1,0C17.7,46.1,17.7,45.9,17.9,45.7z"/>
<path class="st0" d="M21.4,44.2c0.2,0,0.2,0.2,0.2,0.4c0,0.1-0.1,0.2-0.2,0.2c-0.3,0.2-0.7,0.2-1,0c-0.2-0.1-0.2-0.2-0.2-0.4
	c0-0.1,0.1-0.1,0.2-0.2C20.7,44.1,21.1,44.1,21.4,44.2z"/>
<ellipse class="st0" cx="23.5" cy="43.1" rx="0.7" ry="0.4"/>
<path class="st0" d="M25.5,41.3c0.3-0.2,0.7-0.2,1,0c0.2,0.1,0.2,0.2,0.2,0.4c0,0.1-0.1,0.1-0.2,0.2c-0.3,0.2-0.7,0.2-1,0
	C25.3,41.7,25.3,41.5,25.5,41.3S25.3,41.5,25.5,41.3z"/>
<path class="st0" d="M59.5,66c0.3,0.2,0.3,0.4,0,0.6c-0.3,0.2-0.7,0.2-1,0c-0.2-0.1-0.2-0.2-0.2-0.4c0-0.1,0.1-0.1,0.2-0.2
	C58.8,65.8,59.2,65.8,59.5,66z"/>
<path class="st0" d="M62.1,64.5c0.3,0.2,0.3,0.4,0,0.6c-0.3,0.2-0.7,0.2-1,0c-0.3-0.2-0.3-0.4,0-0.6C61.4,64.3,61.8,64.3,62.1,64.5z
	"/>
<ellipse class="st0" cx="64.1" cy="63.3" rx="0.7" ry="0.4"/>
<path class="st0" d="M67.1,61.6c0.2,0.1,0.2,0.2,0.2,0.4c0,0.1-0.1,0.1-0.2,0.2c-0.3,0.2-0.7,0.2-1,0c-0.3-0.2-0.3-0.4,0-0.6
	C66.5,61.4,66.8,61.4,67.1,61.6z"/>
<path class="st0" d="M53.5,66c0.3-0.2,0.7-0.2,1,0c0.3,0.2,0.3,0.4,0,0.6c-0.3,0.2-0.7,0.2-1,0C53.2,66.4,53.2,66.1,53.5,66z"/>
<ellipse class="st0" cx="56.5" cy="64.8" rx="0.7" ry="0.4"/>
<path class="st0" d="M59.5,63c0.3,0.2,0.3,0.4,0,0.5c-0.3,0.2-0.7,0.2-1,0c-0.2-0.1-0.2-0.2-0.2-0.4c0-0.1,0.1-0.2,0.2-0.2
	C58.8,62.9,59.2,62.9,59.5,63z"/>
<path class="st0" d="M62.1,61.6c0.3,0.2,0.3,0.4,0,0.6c-0.3,0.2-0.7,0.2-1,0c-0.3-0.2-0.3-0.4,0-0.6C61.4,61.4,61.8,61.4,62.1,61.6z
	"/>
<ellipse class="st0" cx="64.1" cy="60.4" rx="0.7" ry="0.4"/>
<ellipse class="st0" cx="66.7" cy="58.9" rx="0.7" ry="0.4"/>
<path class="st0" d="M51,64.5c0.3-0.2,0.7-0.2,1,0c0.2,0.1,0.2,0.2,0.2,0.4c0,0.1-0.1,0.1-0.2,0.2c-0.3,0.2-0.7,0.2-1,0
	C50.7,64.9,50.7,64.7,51,64.5z"/>
<path class="st0" d="M54.5,63c0.3,0.2,0.3,0.4,0,0.5c-0.3,0.2-0.7,0.2-1,0c-0.2-0.1-0.2-0.2-0.2-0.4c0-0.1,0.1-0.2,0.2-0.2
	C53.8,62.9,54.2,62.9,54.5,63z"/>
<path class="st0" d="M57,61.6c0.3,0.2,0.3,0.4,0,0.6c-0.3,0.2-0.7,0.2-1,0c-0.2-0.1-0.2-0.2-0.2-0.4c0-0.1,0.1-0.1,0.2-0.2
	C56.3,61.4,56.7,61.4,57,61.6z"/>
<path class="st0" d="M59.5,60.1c0.3,0.2,0.3,0.4,0,0.6c-0.3,0.2-0.7,0.2-1,0c-0.3-0.2-0.3-0.4,0-0.6C58.9,60,59.2,60,59.5,60.1z"/>
<path class="st0" d="M62.1,58.7c0.3,0.2,0.3,0.4,0,0.6c-0.3,0.2-0.7,0.2-1,0c-0.3-0.2-0.3-0.4,0-0.6C61.4,58.5,61.8,58.5,62.1,58.7z
	"/>
<path class="st0" d="M64.6,57.2c0.2,0.1,0.2,0.2,0.2,0.4c0,0.1-0.1,0.1-0.2,0.2c-0.3,0.2-0.7,0.2-1,0c-0.3-0.2-0.3-0.4,0-0.6
	C63.9,57,64.3,57,64.6,57.2z"/>
<path class="st0" d="M48.5,63c0.3-0.2,0.7-0.2,1,0c0.2,0.1,0.2,0.2,0.2,0.4c0,0.1-0.1,0.1-0.2,0.2c-0.3,0.2-0.7,0.2-1,0
	C48.2,63.4,48.2,63.2,48.5,63z"/>
<ellipse class="st0" cx="51.5" cy="61.9" rx="0.7" ry="0.4"/>
<path class="st0" d="M54.5,60.1c0.3,0.2,0.3,0.4,0,0.6c-0.3,0.2-0.7,0.2-1,0c-0.2-0.1-0.2-0.2-0.2-0.4c0-0.1,0.1-0.1,0.2-0.2
	C53.8,60,54.2,60,54.5,60.1z"/>
<ellipse class="st0" cx="56.5" cy="58.9" rx="0.7" ry="0.4"/>
<ellipse class="st0" cx="59.1" cy="57.5" rx="0.7" ry="0.4"/>
<ellipse class="st0" cx="61.6" cy="56" rx="0.7" ry="0.4"/>
<path class="st0" d="M64.6,54.3c0.2,0.1,0.2,0.2,0.2,0.4c0,0.1-0.1,0.1-0.2,0.2c-0.3,0.2-0.7,0.2-1,0c-0.3-0.2-0.3-0.4,0-0.6
	C63.9,54.1,64.3,54.1,64.6,54.3z"/>
<path class="st0" d="M67.1,52.8c0.2,0.1,0.2,0.2,0.2,0.4c0,0.1-0.1,0.2-0.2,0.2c-0.3,0.2-0.7,0.2-1,0c-0.3-0.2-0.3-0.4,0-0.5
	C66.4,52.6,66.8,52.6,67.1,52.8z"/>
<path class="st0" d="M69.7,51.3c0.3,0.2,0.3,0.4,0,0.6c-0.3,0.2-0.7,0.2-1,0c-0.3-0.2-0.3-0.4,0-0.6C69,51.2,69.4,51.2,69.7,51.3z"
	/>
<path class="st0" d="M72.2,49.9c0.3,0.2,0.3,0.4,0,0.6c-0.3,0.2-0.7,0.2-1,0c-0.3-0.2-0.3-0.4,0-0.6C71.5,49.7,71.9,49.7,72.2,49.9z
	"/>
<ellipse class="st0" cx="74.2" cy="48.7" rx="0.7" ry="0.4"/>
<path class="st0" d="M45.9,61.6c0.3-0.2,0.7-0.2,1,0c0.3,0.2,0.3,0.4,0,0.6c-0.3,0.2-0.7,0.2-1,0C45.7,62,45.7,61.7,45.9,61.6z"/>
<path class="st0" d="M49.4,60.1c0.3,0.2,0.3,0.4,0,0.6c-0.3,0.2-0.7,0.2-1,0c-0.3-0.2-0.3-0.4,0-0.6C48.7,60,49.1,60,49.4,60.1z"/>
<path class="st0" d="M52,58.7c0.3,0.2,0.3,0.4,0,0.6c-0.3,0.2-0.7,0.2-1,0c-0.3-0.2-0.3-0.4,0-0.6C51.3,58.5,51.7,58.5,52,58.7z"/>
<path class="st0" d="M54.5,57.2c0.3,0.2,0.3,0.4,0,0.6c-0.3,0.2-0.7,0.2-1,0c-0.2-0.1-0.2-0.2-0.2-0.4c0-0.1,0.1-0.1,0.2-0.2
	C53.8,57,54.2,57,54.5,57.2z"/>
<ellipse class="st0" cx="56.5" cy="56" rx="0.7" ry="0.4"/>
<path class="st0" d="M59.5,54.3c0.3,0.2,0.3,0.4,0,0.6c-0.3,0.2-0.7,0.2-1,0c-0.3-0.2-0.3-0.4,0-0.6C58.8,54.1,59.2,54.1,59.5,54.3z
	"/>
<path class="st0" d="M62.1,52.8c0.3,0.2,0.3,0.4,0,0.5c-0.3,0.2-0.7,0.2-1,0c-0.3-0.2-0.3-0.4,0-0.5C61.4,52.6,61.8,52.6,62.1,52.8z
	"/>
<ellipse class="st0" cx="64.1" cy="51.6" rx="0.7" ry="0.4"/>
<ellipse class="st0" cx="66.7" cy="50.2" rx="0.7" ry="0.4"/>
<ellipse class="st0" cx="69.2" cy="48.7" rx="0.7" ry="0.4"/>
<ellipse class="st0" cx="71.7" cy="47.2" rx="0.7" ry="0.4"/>
<path class="st0" d="M74.7,45.5c0.3,0.2,0.3,0.4,0,0.6c-0.3,0.2-0.7,0.2-1,0c-0.3-0.2-0.3-0.4,0-0.6C74,45.3,74.4,45.3,74.7,45.5z"
	/>
<path class="st0" d="M43.4,60.1c0.3-0.2,0.7-0.2,1,0c0.3,0.2,0.3,0.4,0,0.6c-0.3,0.2-0.7,0.2-1,0c-0.2-0.1-0.2-0.2-0.2-0.4
	C43.2,60.2,43.3,60.2,43.4,60.1z"/>
<path class="st0" d="M46.9,58.7c0.2,0.1,0.2,0.2,0.2,0.4c0,0.1-0.1,0.1-0.2,0.2c-0.3,0.2-0.7,0.2-1,0c-0.3-0.2-0.3-0.4,0-0.6
	C46.2,58.5,46.6,58.5,46.9,58.7z"/>
<ellipse class="st0" cx="48.9" cy="57.5" rx="0.7" ry="0.4"/>
<path class="st0" d="M52,55.7c0.3,0.2,0.3,0.4,0,0.6c-0.3,0.2-0.7,0.2-1,0c-0.3-0.2-0.3-0.4,0-0.6C51.3,55.6,51.7,55.6,52,55.7z"/>
<path class="st0" d="M54.5,54.3c0.3,0.2,0.3,0.4,0,0.6c-0.3,0.2-0.7,0.2-1,0c-0.2-0.1-0.2-0.2-0.2-0.4c0-0.1,0.1-0.1,0.2-0.2
	C53.8,54.1,54.2,54.1,54.5,54.3z"/>
<ellipse class="st0" cx="56.5" cy="53.1" rx="0.7" ry="0.4"/>
<path class="st0" d="M59.5,51.3c0.3,0.2,0.3,0.4,0,0.6c-0.3,0.2-0.7,0.2-1,0c-0.3-0.2-0.3-0.4,0-0.6C58.9,51.2,59.2,51.2,59.5,51.3z
	"/>
<path class="st0" d="M62.1,49.9c0.3,0.2,0.3,0.4,0,0.6c-0.3,0.2-0.7,0.2-1,0c-0.3-0.2-0.3-0.4,0-0.6C61.4,49.7,61.8,49.7,62.1,49.9z
	"/>
<path class="st0" d="M64.6,48.4c0.2,0.1,0.2,0.2,0.2,0.4c0,0.1-0.1,0.1-0.2,0.2c-0.3,0.2-0.7,0.2-1,0c-0.3-0.2-0.3-0.4,0-0.6
	C63.9,48.3,64.3,48.3,64.6,48.4z"/>
<ellipse class="st0" cx="66.7" cy="47.2" rx="0.7" ry="0.4"/>
<ellipse class="st0" cx="69.2" cy="45.8" rx="0.7" ry="0.4"/>
<ellipse class="st0" cx="71.7" cy="44.3" rx="0.7" ry="0.4"/>
<path class="st0" d="M40.8,58.6c0.3-0.2,0.7-0.2,1,0c0.3,0.2,0.3,0.4,0,0.6c-0.3,0.2-0.7,0.2-1,0C40.6,59,40.6,58.8,40.8,58.6z"/>
<path class="st0" d="M44.3,57.2c0.3,0.2,0.3,0.4,0,0.6c-0.3,0.2-0.7,0.2-1,0c-0.3-0.2-0.3-0.4,0-0.6C43.6,57,44,57,44.3,57.2z"/>
<path class="st0" d="M46.9,55.7c0.2,0.1,0.2,0.2,0.2,0.4c0,0.1-0.1,0.1-0.2,0.2c-0.3,0.2-0.7,0.2-1,0c-0.3-0.2-0.3-0.4,0-0.6
	C46.2,55.6,46.6,55.6,46.9,55.7z"/>
<ellipse class="st0" cx="48.9" cy="54.5" rx="0.7" ry="0.4"/>
<path class="st0" d="M51.9,52.8c0.3,0.2,0.3,0.4,0,0.6c-0.3,0.2-0.7,0.2-1,0c-0.3-0.2-0.3-0.4,0-0.6C51.2,52.6,51.6,52.6,51.9,52.8z
	"/>
<ellipse class="st0" cx="54" cy="51.6" rx="0.7" ry="0.4"/>
<path class="st0" d="M57,49.9c0.3,0.2,0.3,0.4,0,0.6c-0.3,0.2-0.7,0.2-1,0c-0.3-0.2-0.3-0.4,0-0.6C56.3,49.7,56.7,49.7,57,49.9z"/>
<path class="st0" d="M59.5,48.4c0.3,0.2,0.3,0.4,0,0.6c-0.3,0.2-0.7,0.2-1,0c-0.2-0.1-0.2-0.2-0.2-0.4c0-0.1,0.1-0.1,0.2-0.2
	C58.8,48.2,59.2,48.2,59.5,48.4z"/>
<path class="st0" d="M62,47c0.3,0.2,0.3,0.4,0,0.6c-0.3,0.2-0.7,0.2-1,0c-0.2-0.1-0.2-0.2-0.2-0.4c0-0.1,0.1-0.1,0.2-0.2
	C61.4,46.8,61.7,46.8,62,47z"/>
<path class="st0" d="M64.6,45.5c0.3,0.2,0.3,0.4,0,0.6c-0.3,0.2-0.7,0.2-1,0c-0.3-0.2-0.3-0.4,0-0.6C63.9,45.3,64.3,45.3,64.6,45.5z
	"/>
<ellipse class="st0" cx="66.6" cy="44.3" rx="0.7" ry="0.4"/>
<ellipse class="st0" cx="69.2" cy="42.8" rx="0.7" ry="0.4"/>
<path class="st0" d="M38.3,57.2c0.3-0.2,0.7-0.2,1,0c0.3,0.2,0.3,0.4,0,0.5c-0.3,0.2-0.7,0.2-1,0C38,57.6,38,57.3,38.3,57.2z"/>
<path class="st0" d="M41.8,55.7c0.3,0.2,0.3,0.4,0,0.6c-0.3,0.2-0.7,0.2-1,0c-0.2-0.1-0.2-0.2-0.2-0.4c0-0.1,0.1-0.1,0.2-0.2
	C41.1,55.6,41.5,55.6,41.8,55.7z"/>
<path class="st0" d="M44.3,54.3c0.3,0.2,0.3,0.4,0,0.6c-0.3,0.2-0.7,0.2-1,0c-0.3-0.2-0.3-0.4,0-0.6C43.6,54.1,44,54.1,44.3,54.3z"
	/>
<path class="st0" d="M46.9,52.8c0.2,0.1,0.2,0.2,0.2,0.4c0,0.1-0.1,0.1-0.2,0.2c-0.3,0.2-0.7,0.2-1,0c-0.3-0.2-0.3-0.4,0-0.6
	C46.2,52.6,46.6,52.6,46.9,52.8z"/>
<path class="st0" d="M49.4,51.3c0.2,0.1,0.2,0.2,0.2,0.4c0,0.1-0.1,0.1-0.2,0.2c-0.3,0.2-0.7,0.2-1,0c-0.3-0.2-0.3-0.4,0-0.6
	C48.7,51.2,49.1,51.2,49.4,51.3z"/>
<path class="st0" d="M51.9,49.9c0.3,0.2,0.3,0.4,0,0.6c-0.3,0.2-0.7,0.2-1,0c-0.3-0.2-0.3-0.4,0-0.6C51.2,49.7,51.6,49.7,51.9,49.9z
	"/>
<ellipse class="st0" cx="54" cy="48.7" rx="0.7" ry="0.4"/>
<ellipse class="st0" cx="56.5" cy="47.2" rx="0.7" ry="0.4"/>
<ellipse class="st0" cx="59" cy="45.8" rx="0.7" ry="0.4"/>
<ellipse class="st0" cx="61.6" cy="44.3" rx="0.7" ry="0.4"/>
<path class="st0" d="M64.6,42.6c0.3,0.2,0.3,0.4,0,0.6c-0.3,0.2-0.7,0.2-1,0c-0.3-0.2-0.3-0.4,0-0.6C63.9,42.4,64.3,42.4,64.6,42.6z
	"/>
<path class="st0" d="M67.1,41.1c0.3,0.2,0.3,0.4,0,0.6c-0.3,0.2-0.7,0.2-1,0c-0.3-0.2-0.3-0.4,0-0.6C66.4,40.9,66.8,40.9,67.1,41.1z
	"/>
<path class="st0" d="M35.8,55.7c0.3-0.2,0.7-0.2,1,0c0.3,0.2,0.3,0.4,0,0.6c-0.3,0.2-0.7,0.2-1,0C35.5,56.1,35.5,55.9,35.8,55.7z"/>
<path class="st0" d="M39.3,54.3c0.3,0.2,0.3,0.4,0,0.6c-0.3,0.2-0.7,0.2-1,0c-0.2-0.1-0.2-0.2-0.2-0.4c0-0.1,0.1-0.1,0.2-0.2
	C38.6,54.1,39,54.1,39.3,54.3z"/>
<path class="st0" d="M41.8,52.8c0.3,0.2,0.3,0.4,0,0.6c-0.3,0.2-0.7,0.2-1,0c-0.2-0.1-0.2-0.2-0.2-0.4c0-0.1,0.1-0.1,0.2-0.2
	C41.1,52.6,41.5,52.6,41.8,52.8z"/>
<path class="st0" d="M44.3,51.3c0.3,0.2,0.3,0.4,0,0.6c-0.3,0.2-0.7,0.2-1,0c-0.3-0.2-0.3-0.4,0-0.6C43.6,51.2,44,51.2,44.3,51.3z"
	/>
<ellipse class="st0" cx="46.4" cy="50.2" rx="0.7" ry="0.4"/>
<path class="st0" d="M49.4,48.4c0.2,0.1,0.2,0.2,0.2,0.4c0,0.1-0.1,0.1-0.2,0.2c-0.3,0.2-0.7,0.2-1,0c-0.3-0.2-0.3-0.4,0-0.6
	C48.7,48.2,49.1,48.2,49.4,48.4z"/>
<path class="st0" d="M51.9,47c0.3,0.2,0.3,0.4,0,0.6c-0.3,0.2-0.7,0.2-1,0c-0.3-0.2-0.3-0.4,0-0.6C51.2,46.8,51.6,46.8,51.9,47z"/>
<path class="st0" d="M54.5,45.5c0.3,0.2,0.3,0.4,0,0.6c-0.3,0.2-0.7,0.2-1,0c-0.3-0.2-0.3-0.4,0-0.6C53.8,45.3,54.1,45.3,54.5,45.5z
	"/>
<ellipse class="st0" cx="56.5" cy="44.3" rx="0.7" ry="0.4"/>
<path class="st0" d="M59.5,42.6c0.3,0.2,0.3,0.4,0,0.6c-0.3,0.2-0.7,0.2-1,0c-0.2-0.1-0.2-0.2-0.2-0.4c0-0.1,0.1-0.1,0.2-0.2
	C58.8,42.4,59.2,42.4,59.5,42.6z"/>
<path class="st0" d="M62,41.1c0.3,0.2,0.3,0.4,0,0.6c-0.3,0.2-0.7,0.2-1,0c-0.2-0.1-0.2-0.2-0.2-0.4c0-0.1,0.1-0.1,0.2-0.2
	C61.4,40.9,61.7,40.9,62,41.1z"/>
<path class="st0" d="M33.2,54.3c0.3-0.2,0.7-0.2,1,0c0.2,0.1,0.2,0.2,0.2,0.4c0,0.1-0.1,0.1-0.2,0.2c-0.3,0.2-0.7,0.2-1,0
	C33,54.7,33,54.4,33.2,54.3z"/>
<path class="st0" d="M36.7,52.8c0.3,0.2,0.3,0.4,0,0.6c-0.3,0.2-0.7,0.2-1,0c-0.2-0.1-0.2-0.2-0.2-0.4c0-0.1,0.1-0.1,0.2-0.2
	C36.1,52.6,36.4,52.6,36.7,52.8z"/>
<path class="st0" d="M39.3,51.3c0.3,0.2,0.3,0.4,0,0.6c-0.3,0.2-0.7,0.2-1,0c-0.2-0.1-0.2-0.2-0.2-0.4c0-0.1,0.1-0.1,0.2-0.2
	C38.6,51.2,39,51.2,39.3,51.3z"/>
<path class="st0" d="M41.8,49.9c0.3,0.2,0.3,0.4,0,0.6c-0.3,0.2-0.7,0.2-1,0c-0.3-0.2-0.3-0.4,0-0.6C41.1,49.7,41.5,49.7,41.8,49.9z
	"/>
<path class="st0" d="M44.3,48.4c0.3,0.2,0.3,0.4,0,0.6c-0.3,0.2-0.7,0.2-1,0c-0.3-0.2-0.3-0.4,0-0.6C43.6,48.2,44,48.2,44.3,48.4z"
	/>
<path class="st0" d="M46.9,47c0.2,0.1,0.2,0.2,0.2,0.4c0,0.1-0.1,0.1-0.2,0.2c-0.3,0.2-0.7,0.2-1,0c-0.3-0.2-0.3-0.4,0-0.6
	C46.2,46.8,46.6,46.8,46.9,47z"/>
<ellipse class="st0" cx="48.9" cy="45.8" rx="0.7" ry="0.4"/>
<path class="st0" d="M51.9,44c0.3,0.2,0.3,0.4,0,0.6c-0.3,0.2-0.7,0.2-1,0c-0.3-0.2-0.3-0.4,0-0.6C51.2,43.8,51.6,43.8,51.9,44z"/>
<ellipse class="st0" cx="54" cy="42.8" rx="0.7" ry="0.4"/>
<ellipse class="st0" cx="56.5" cy="41.4" rx="0.7" ry="0.4"/>
<path class="st0" d="M59.5,40.2c-0.3,0.2-0.7,0.2-1,0c-0.2-0.1-0.2-0.2-0.2-0.4c0-0.1,0.1-0.1,0.2-0.2C58.8,39.5,59.8,40,59.5,40.2z
	"/>
<path class="st1" d="M58.5,32.6L55.6,34l0.7,0.5c0.3,0.1,0.5,0.5,0.3,0.9c-0.1,0.2-0.2,0.3-0.4,0.4l0,0c-0.7,0.3-1.5,0.2-2.1-0.2
	L53.3,35L24.7,48.6c-0.3,0.1-0.5,0.4-0.5,0.7c0,0.2,0.2,0.3,0.4,0.4l11.9,8.2c0.6,0.4,1.3,0.4,2,0.2L72.2,42
	c0.3-0.1,0.5-0.4,0.4-0.7c0-0.2-0.2-0.3-0.4-0.4l-11.8-8.1C59.8,32.4,59.1,32.3,58.5,32.6z"/>
<path class="st0" d="M37.6,58.4c-0.4,0-0.9-0.1-1.2-0.4l-11.8-8.2c-0.3-0.2-0.5-0.5-0.5-0.8c0-0.3,0.3-0.6,0.6-0.7l28.7-13.7
	l0.8,0.5c0.6,0.3,1.3,0.4,1.9,0.2c0.2-0.1,0.4-0.3,0.4-0.4s-0.1-0.3-0.3-0.5l-1-0.7l3.2-1.5c0.7-0.3,1.5-0.2,2.2,0.2l11.8,8.1
	c0.3,0.2,0.5,0.5,0.4,0.8c0,0.3-0.3,0.6-0.6,0.7L38.5,58.3C38.2,58.4,37.9,58.5,37.6,58.4z M53.3,35.3L24.8,48.8
	c-0.2,0.1-0.3,0.2-0.3,0.4c0,0.2,0.1,0.3,0.3,0.4l11.8,8.2c0.5,0.3,1.2,0.4,1.8,0.1l33.7-16c0.2-0.1,0.3-0.2,0.3-0.4
	c0-0.2-0.1-0.3-0.3-0.4l-11.8-8.2c-0.5-0.3-1.2-0.4-1.8-0.1L56,34l0.4,0.3c0.4,0.2,0.6,0.7,0.4,1.1c-0.1,0.2-0.3,0.4-0.5,0.5
	c-0.8,0.3-1.6,0.3-2.3-0.2L53.3,35.3z"/>
<path class="st2" d="M58.5,32.6L55.6,34l0.7,0.5c0.3,0.1,0.5,0.5,0.3,0.9c-0.1,0.2-0.2,0.3-0.4,0.4l0,0c-0.7,0.3-1.5,0.2-2.1-0.2
	L53.3,35L24.7,48.6c-0.3,0.1-0.5,0.4-0.5,0.7c0,0.2,0.2,0.3,0.4,0.4l3,2l35.8-17l-3-2C59.8,32.4,59.1,32.3,58.5,32.6z"/>
<path class="st1" d="M58.3,33.6L55.4,35l0.7,0.5c0.6,0.4,0.5,0.9-0.1,1.2l0,0c-0.7,0.3-1.5,0.2-2.1-0.2l-0.7-0.5L24.6,49.7
	c-0.3,0.1-0.5,0.4-0.4,0.7c0,0.2,0.2,0.3,0.4,0.4l3,2l35.8-17l-3-2C59.7,33.5,59,33.4,58.3,33.6z"/>
<path class="st0" d="M27.6,52l-3-2.1c-0.3-0.2-0.5-0.5-0.5-0.8c0-0.3,0.3-0.6,0.6-0.7l28.7-13.6l0.8,0.5c0.6,0.3,1.3,0.4,1.9,0.2
	c0.2-0.1,0.4-0.3,0.4-0.4s-0.1-0.3-0.3-0.5l-1-0.7l3.2-1.5c0.7-0.3,1.5-0.2,2.2,0.2l3.2,2.2L27.6,52z M53.3,35.3L24.8,48.8
	c-0.2,0.1-0.3,0.2-0.3,0.4c0,0.2,0.1,0.3,0.3,0.4l2.9,2L63,34.7l-2.7-1.8c-0.5-0.3-1.2-0.4-1.8-0.1L56,34l0.4,0.3
	c0.4,0.2,0.6,0.7,0.4,1.1c-0.1,0.2-0.3,0.4-0.5,0.5c-0.8,0.3-1.6,0.3-2.3-0.2L53.3,35.3z"/>
<path class="st3" d="M35.8,57.5l0.7,0.5c0.6,0.4,1.3,0.4,2,0.2L72.2,42c0.3-0.1,0.5-0.4,0.4-0.7c0-0.2-0.2-0.3-0.4-0.4l-0.7-0.5
	L35.8,57.5z"/>
<path class="st1" d="M71.3,41.3L36.5,57.9c0.6,0.3,1.3,0.4,1.9,0.1l33.7-16l0.1,0c0-0.1-0.1-0.1-0.2-0.1L71.3,41.3z"/>
<path class="st0" d="M37.6,58.4c-0.4,0-0.9-0.1-1.2-0.4l-1-0.7l36.3-17.2l0.8,0.5c0.3,0.2,0.5,0.5,0.4,0.8c0,0.3-0.3,0.6-0.6,0.7
	L38.5,58.3C38.2,58.4,37.9,58.5,37.6,58.4z M36.2,57.4l0.4,0.3c0.5,0.3,1.2,0.4,1.8,0.1l33.7-16c0.2-0.1,0.3-0.2,0.3-0.4
	c0-0.2-0.1-0.3-0.3-0.4l-0.6-0.4L36.2,57.4z"/>
<path class="st0" d="M63.8,46.1l-0.4-0.3l0.2-0.3l0.4,0.3L63.8,46.1z M62.1,45l-1.3-1l0.3-0.3l1.3,0.9L62.1,45z M59.4,43.1l-1.3-0.9
	l0.2-0.3l1.3,0.9L59.4,43.1z M56.7,41.3l-1.3-0.9l0.2-0.3l1.3,0.9L56.7,41.3z M54.1,39.4l-1.3-0.9l0.2-0.3l1.3,0.9L54.1,39.4z
	 M51.4,37.6l-1.3-0.9l0.2-0.3l1.3,0.9L51.4,37.6z"/>
<path d="M27,49l0.3-0.1c0.1-0.1,0.2-0.1,0.3-0.1c0.1,0,0.2,0.1,0.3,0.2l0,0c0.1,0,0.1,0.1,0.2,0.2c0,0,0,0.1,0,0.1
	c0.2,0,0.4,0.1,0.5,0.2l0,0c0.1,0.1,0.2,0.2,0.2,0.3s0,0.1-0.1,0.2L28.4,50L27,49z M27.8,49L27.8,49c-0.1-0.1-0.1-0.1-0.2-0.1h-0.1
	h-0.1l0.5,0.3l0.1,0H28c0,0,0,0,0-0.1L27.8,49L27.8,49z M28.5,49.5c-0.1-0.1-0.1-0.1-0.2-0.1c-0.1,0-0.1,0-0.2,0L28,49.4l0.6,0.4
	l0.1-0.1c0,0,0.1-0.1,0-0.1C28.7,49.6,28.6,49.5,28.5,49.5L28.5,49.5z"/>
<path d="M28.3,48.9c-0.2-0.1-0.2-0.2-0.2-0.3s0.1-0.1,0.2-0.2c0.1-0.1,0.3-0.1,0.5,0c0.1,0,0.2,0.1,0.3,0.2l0.7,0.5
	c0.2,0.1,0.2,0.2,0.3,0.3c0,0.1,0,0.1-0.1,0.2c-0.1,0.1-0.2,0.1-0.4,0c-0.2,0-0.3-0.1-0.4-0.2L28.3,48.9z M28.7,48.6
	c-0.1-0.1-0.1-0.1-0.2-0.1c-0.1,0-0.1,0-0.2,0c0,0-0.1,0,0,0.1c0,0.1,0.1,0.1,0.2,0.2l0.7,0.5c0.1,0.1,0.2,0.1,0.3,0.2
	c0.1,0,0.1,0,0.2,0c0,0,0.1-0.1,0-0.1c-0.1-0.1-0.1-0.1-0.2-0.2L28.7,48.6z"/>
<path d="M29,48.1l0.2-0.1l1.8,0.9L30.8,49l-0.3-0.2l-0.3,0.1l0.2,0.2l-0.2,0.1L29,48.1z M30.1,48.8l0.2-0.1l-0.9-0.5l0,0L30.1,48.8z
	"/>
<path d="M29.7,47.7l0.3-0.2c0.2-0.1,0.4-0.1,0.5,0l0.2,0.1c0.1,0,0.1,0.1,0.2,0.2c0,0,0,0.1,0,0.1c0,0,0,0,0,0c0,0,0.1,0,0.1,0
	l0.2,0.1l0.3,0.2c0.1,0.1,0.2,0.1,0.3,0.2l-0.2,0.1c-0.2-0.1-0.4-0.2-0.5-0.3c-0.1-0.1-0.1-0.1-0.2-0.1c0,0-0.1,0-0.1,0h-0.1
	l0.7,0.5l-0.2,0.1L29.7,47.7z M30.5,47.7c-0.1-0.1-0.1-0.1-0.2-0.1c0,0-0.1,0-0.1,0L30,47.7l0.5,0.3l0.1,0c0,0,0.1,0,0.1-0.1
	s0,0,0-0.1C30.6,47.8,30.6,47.8,30.5,47.7L30.5,47.7z"/>
<path d="M30.5,47.3l0.3-0.2c0.1,0,0.2,0,0.4,0c0.1,0,0.3,0.1,0.4,0.2l0.7,0.5c0.2,0.1,0.2,0.2,0.3,0.3s0,0.1-0.2,0.2L32,48.4
	L30.5,47.3z M31.4,47.4c-0.1,0-0.2-0.1-0.2-0.1c-0.1,0-0.1,0-0.2,0h-0.1l1.2,0.8l0.1,0h0.1c0,0,0-0.1-0.2-0.2L31.4,47.4z"/>
<path d="M31.5,46.9l0.2-0.1l1.5,1L33,47.9L31.5,46.9z"/>
<path d="M32.4,46.4l0.2-0.1l1.5,1L34,47.4l-1.4-0.5l0.4,0.2l0.7,0.5l-0.2,0.1l-1.5-1l0.1-0.1l1.4,0.5L33,46.8L32.4,46.4z"/>
<path d="M33.3,46.5c-0.2-0.2-0.3-0.3-0.2-0.4c0,0,0.1-0.1,0.1-0.1c0.1,0,0.2-0.1,0.3-0.1c0.1,0,0.2,0,0.2,0.1c0.1,0,0.2,0.1,0.3,0.2
	l0.1,0.1l-0.2,0.1l-0.2-0.1c-0.1,0-0.1-0.1-0.2-0.1c0,0-0.1,0-0.2,0c0,0-0.1,0.1,0,0.1c0.1,0.1,0.1,0.1,0.2,0.2l0.6,0.4l0.3,0.2
	c0.1,0,0.1,0,0.2,0c0,0,0.1-0.1,0-0.1c-0.1-0.1-0.1-0.1-0.2-0.2l-0.2-0.1L34,46.6l-0.1-0.1l0.3-0.2L35,47h-0.1l-0.1-0.1
	c0,0.1,0,0.1-0.1,0.2c-0.1,0-0.2,0-0.3,0c-0.2,0-0.3-0.1-0.4-0.2L33.3,46.5z"/>
<path d="M34.2,45.6l0.3-0.2c0.1-0.1,0.3-0.1,0.4,0c0.1,0,0.2,0.1,0.3,0.2l0.2,0.2c0.1,0.1,0.1,0.1,0.1,0.2s0,0.1-0.1,0.2l-0.1,0.1
	l0.6,0.4l-0.2,0.1L34.2,45.6z M35.1,45.7c-0.1-0.1-0.2-0.1-0.2-0.1c-0.1,0-0.1,0-0.2,0l-0.1,0.1l0.6,0.4h0.1c0.1,0,0.1-0.1,0-0.1
	C35.2,45.8,35.2,45.8,35.1,45.7L35.1,45.7z"/>
<path d="M35.2,45.1l0.2-0.1l1.8,0.9L37,46l-0.3-0.2L36.4,46l0.2,0.2l-0.2,0.1L35.2,45.1z M36.3,45.8l0.2-0.1l-0.9-0.5l0,0L36.3,45.8
	z"/>
<path d="M36.3,45.1L36.2,45c-0.1,0-0.1-0.1-0.2-0.2c0-0.1,0-0.1,0.2-0.2c0.2-0.1,0.3-0.1,0.5,0l0.2,0.2l0.1,0.1l-0.2,0.1l-0.1-0.1
	l-0.2-0.1h-0.1c0,0,0,0-0.1,0c0,0-0.1,0-0.1,0.1s0,0.1,0.1,0.1l0.2,0.1h0.2h0.1H37c0.2,0,0.4,0.1,0.6,0.2c0.1,0.1,0.2,0.1,0.2,0.2
	c0,0.1,0,0.1-0.2,0.2c-0.1,0.1-0.3,0.1-0.5,0c-0.1,0-0.2-0.1-0.3-0.2l0,0l-0.1-0.1l0.2-0.1l0.2,0.1c0.1,0.1,0.2,0.1,0.2,0.2
	c0.1,0,0.1,0,0.2,0c0,0,0.1,0,0.1-0.1s0,0-0.1-0.1l-0.1-0.1c-0.1-0.1-0.3-0.1-0.4-0.1h-0.2C36.6,45.1,36.5,45.1,36.3,45.1z"/>
<path d="M37.2,44.7L37,44.6c-0.1-0.1-0.2-0.1-0.2-0.2c0-0.1,0-0.1,0.2-0.2c0.2-0.1,0.3-0.1,0.5,0l0.2,0.2l0.1,0.1l-0.2,0.1l-0.1-0.1
	c-0.1-0.1-0.1-0.1-0.2-0.1h-0.1h-0.1c0,0-0.1,0,0,0.1c0,0,0.1,0.1,0.1,0.1c0,0,0.1,0.1,0.2,0.1h0.2h0.1h0.2c0.2,0,0.4,0.1,0.6,0.2
	c0.1,0.1,0.2,0.1,0.2,0.2c0,0.1,0,0.1-0.1,0.2c-0.1,0.1-0.3,0.1-0.5,0c-0.1,0-0.2-0.1-0.3-0.2l0,0L37.6,45l0.2,0l0.2,0.1
	c0.1,0.1,0.2,0.1,0.3,0.2c0.1,0,0.1,0,0.2,0c0,0,0.1,0,0.1-0.1c0,0,0-0.1-0.1-0.1L38.2,45c-0.1-0.1-0.3-0.1-0.4-0.1h-0.2
	C37.4,44.8,37.3,44.8,37.2,44.7z"/>
<polygon class="st0" points="68.3,40.5 36.4,55.6 35,54.6 66.8,39.5 "/>
<polygon class="st0" points="65.7,38.8 59.7,41.6 56.6,39.5 62.6,36.6 "/>
<polygon class="st0" points="37.2,52.3 33.9,53.9 30.8,51.8 34.1,50.2 "/>
<polygon class="st0" points="57.2,42.8 55.5,43.6 52.4,41.5 54.1,40.7 "/>
<path class="st3" d="M51.2,46.1l-3,1.2l0.6,0.5c0.5,0.4,0.5,1-0.2,1.2l0,0c-0.7,0.2-1.5,0.1-2.1-0.3l-0.6-0.5L16.6,60.1
	c-0.3,0.1-0.5,0.4-0.5,0.7c0,0.2,0.2,0.3,0.3,0.4l11.3,8.8c0.6,0.4,1.3,0.5,2,0.3l34.6-14c0.6-0.2,0.7-0.7,0.2-1.1l-11.4-8.8
	C52.6,46,51.9,45.9,51.2,46.1z"/>
<path class="st0" d="M29,70.7c-0.5,0-1-0.2-1.4-0.4l-11.3-8.9c-0.3-0.2-0.4-0.5-0.4-0.8c0.1-0.3,0.3-0.6,0.6-0.7L46,48l0.7,0.6
	c0.6,0.4,1.3,0.5,1.9,0.3c0.3,0,0.4-0.3,0.4-0.5c0-0.2-0.1-0.3-0.3-0.4l-0.9-0.7l3.3-1.3c0.7-0.3,1.5-0.1,2.2,0.3l11.3,8.9
	c0.4,0.2,0.5,0.7,0.3,1.1c-0.1,0.2-0.3,0.3-0.5,0.4l-34.6,14C29.6,70.7,29.3,70.8,29,70.7z M45.9,48.5L16.7,60.3
	c-0.2,0.1-0.3,0.2-0.4,0.3c0,0.2,0.1,0.3,0.2,0.4L27.9,70c0.5,0.4,1.2,0.4,1.8,0.2l34.6-14c0.2,0,0.4-0.2,0.3-0.5
	c0-0.1-0.1-0.3-0.2-0.3l-11.3-8.9c-0.5-0.4-1.2-0.4-1.8-0.2l-2.6,1.1l0.4,0.3c0.4,0.2,0.6,0.8,0.3,1.2c-0.1,0.2-0.3,0.3-0.5,0.4
	c-0.8,0.3-1.7,0.1-2.3-0.3L45.9,48.5z"/>
<path class="st1" d="M51.2,46.1l-3,1.2l0.6,0.5c0.5,0.4,0.5,1-0.2,1.2l0,0c-0.7,0.2-1.5,0.1-2.1-0.3l-0.6-0.5L16.6,60.1
	c-0.3,0.1-0.5,0.4-0.5,0.7c0,0.2,0.2,0.3,0.3,0.4l2.8,2.2L56,48.6l-2.8-2.2C52.6,46,51.9,45.9,51.2,46.1z"/>
<path class="st3" d="M51.1,47.2l-3,1.2l0.6,0.5c0.5,0.4,0.5,1-0.2,1.2l0,0c-0.7,0.2-1.5,0.1-2.1-0.3l-0.6-0.5L18,60.6
	c-0.3,0.1-0.5,0.4-0.5,0.7c0,0.2,0.2,0.3,0.3,0.4l2.8,2.2l35.3-14.3l-2.8-2.2C52.5,47.1,51.8,47,51.1,47.2z"/>
<path class="st0" d="M19.2,63.7l-2.9-2.3c-0.3-0.2-0.4-0.5-0.4-0.8c0.1-0.3,0.3-0.6,0.6-0.7L46,48l0.7,0.6c0.6,0.4,1.3,0.5,1.9,0.3
	c0.3,0,0.4-0.3,0.4-0.5c0-0.2-0.1-0.3-0.3-0.4l-0.9-0.7l3.3-1.3c0.7-0.3,1.5-0.1,2.2,0.3l3.1,2.4l-0.3,0.1L19.2,63.7z M45.9,48.5
	L16.7,60.3c-0.2,0.1-0.3,0.2-0.4,0.3c0,0.2,0.1,0.3,0.2,0.4l2.7,2.1l36.3-14.7l-2.5-2c-0.5-0.4-1.2-0.4-1.8-0.2l-2.6,1.1l0.4,0.3
	c0.4,0.2,0.6,0.8,0.3,1.2c-0.1,0.2-0.3,0.3-0.5,0.4c-0.8,0.3-1.7,0.1-2.3-0.3L45.9,48.5z"/>
<path class="st1" d="M27.1,69.6l0.6,0.5c0.6,0.4,1.3,0.5,2,0.3l34.6-14c0.6-0.2,0.7-0.7,0.2-1.1l-0.6-0.5L27.1,69.6z"/>
<path class="st3" d="M64.5,56.4c-0.1-0.1-0.1-0.2-0.2-0.2l-0.7-0.5L28.5,69.9l0.6,0.5c0.1,0.1,0.1,0.1,0.2,0.1
	c0.2,0,0.3-0.1,0.5-0.1L64.5,56.4L64.5,56.4z"/>
<path class="st0" d="M29,70.7c-0.5,0-1-0.2-1.4-0.4l-0.9-0.7l0.3-0.1l36.9-14.9l0.7,0.6c0.4,0.2,0.5,0.7,0.3,1.1
	c-0.1,0.2-0.3,0.3-0.5,0.4l-34.6,14C29.5,70.7,29.3,70.7,29,70.7z M27.5,69.7l0.4,0.3c0.5,0.4,1.2,0.4,1.8,0.2l34.6-14
	c0.2,0,0.4-0.2,0.3-0.5c0-0.1-0.1-0.3-0.2-0.3L63.9,55L27.5,69.7z"/>
<path class="st0" d="M55.8,60l-0.4-0.3l0.2-0.3l0.4,0.3L55.8,60z M54.1,58.7l-1.3-1l0.2-0.3l1.3,1L54.1,58.7z M51.6,56.7l-1.3-1
	l0.2-0.3l1.3,1L51.6,56.7z M49,54.7l-1.3-1l0.2-0.3l1.3,1L49,54.7z M46.4,52.7l-1.3-1l0.2-0.3l1.3,1L46.4,52.7z M43.9,50.7l-1.3-1
	l0.2-0.3l1.3,1L43.9,50.7z"/>
<path d="M18.9,60.6l0.3-0.1c0.1,0,0.2-0.1,0.3,0c0.1,0,0.2,0.1,0.3,0.2l0,0c0.1,0,0.1,0.1,0.2,0.2c0,0,0,0.1,0,0.1
	c0.2,0,0.4,0.1,0.5,0.2l0,0c0.1,0.1,0.2,0.2,0.2,0.3s0,0.1-0.2,0.2l-0.3,0.1L18.9,60.6z M19.7,60.7L19.7,60.7
	c-0.1-0.1-0.1-0.1-0.2-0.1h-0.1h-0.1l0.5,0.4h0.1c0,0,0.1,0,0.1,0c0,0,0,0,0-0.1C19.8,60.9,19.8,60.8,19.7,60.7L19.7,60.7z
	 M20.3,61.2c-0.1-0.1-0.1-0.1-0.2-0.1c-0.1,0-0.1,0-0.2,0h-0.1l0.6,0.5l0.1,0c0.1,0,0.1,0,0.1-0.1C20.5,61.3,20.5,61.3,20.3,61.2
	L20.3,61.2z"/>
<path d="M20.2,60.6c-0.2-0.1-0.2-0.2-0.2-0.3s0.1-0.1,0.2-0.2c0.1-0.1,0.3-0.1,0.5,0c0.1,0,0.2,0.1,0.3,0.2l0.6,0.5
	c0.1,0.1,0.2,0.2,0.2,0.3s0,0.1-0.1,0.2c-0.1,0-0.2,0-0.4,0c-0.1,0-0.3-0.1-0.4-0.2L20.2,60.6z M20.6,60.4c-0.1-0.1-0.1-0.1-0.2-0.2
	c-0.1,0-0.1,0-0.2,0c-0.1,0-0.1,0,0,0.1c0,0.1,0.1,0.1,0.2,0.2L21,61c0.1,0.1,0.2,0.1,0.2,0.2c0.1,0,0.1,0,0.2,0c0.1,0,0.1,0,0-0.1
	c-0.1-0.1-0.1-0.1-0.2-0.2L20.6,60.4z"/>
<path d="M20.9,59.8l0.2-0.1l1.7,1l-0.2,0.1l-0.3-0.2L22,60.8l0.2,0.2L22,61.1L20.9,59.8z M21.9,60.6l0.3-0.1L21.3,60l0,0L21.9,60.6z
	"/>
<path d="M21.6,59.6l0.4-0.1c0.1,0,0.2-0.1,0.3,0c0.1,0,0.2,0.1,0.3,0.1l0.2,0.1c0.1,0,0.1,0.1,0.1,0.2c0,0,0,0.1,0,0.1c0,0,0,0,0,0
	c0,0,0.1,0,0.1,0c0.1,0,0.1,0.1,0.2,0.1l0.3,0.2c0.1,0.1,0.2,0.1,0.3,0.2l-0.2,0.1c-0.2-0.1-0.3-0.2-0.5-0.4
	C23,60.1,22.9,60,22.8,60c0,0-0.1,0-0.1,0h-0.1l0.7,0.5l-0.2,0.1L21.6,59.6z M22.4,59.6c-0.1-0.1-0.2-0.1-0.2-0.1c0,0-0.1,0-0.1,0
	l-0.1,0l0.5,0.4l0.1-0.1c0,0,0,0,0.1,0c0,0,0,0,0-0.1L22.4,59.6L22.4,59.6z"/>
<path d="M22.5,59.2l0.3-0.1c0.1,0,0.3,0,0.4,0c0.1,0,0.3,0.1,0.4,0.2l0.6,0.5c0.1,0.1,0.2,0.2,0.2,0.3s0,0.1-0.2,0.2l-0.3,0.1
	L22.5,59.2z M23.4,59.3c-0.1-0.1-0.1-0.1-0.2-0.1c-0.1,0-0.1,0-0.2,0h-0.1l1.2,0.9h0.1c0,0,0.1,0,0.1,0s0-0.1-0.2-0.2L23.4,59.3z"/>
<path d="M23.4,58.8l0.2-0.1l1.4,1.1l-0.2,0.1L23.4,58.8z"/>
<path d="M24.4,58.4l0.2-0.1l1.4,1.1l-0.1,0.1l-1.4-0.6l0.4,0.3l0.6,0.5l-0.2,0.1l-1.4-1.1l0.1-0.1l1.4,0.6L25,58.8L24.4,58.4z"/>
<path d="M25.3,58.5c-0.2-0.2-0.3-0.3-0.2-0.4c0,0,0.1-0.1,0.1-0.1c0.1,0,0.2-0.1,0.3,0c0.1,0,0.2,0,0.2,0.1c0.1,0,0.2,0.1,0.2,0.2
	l0.1,0.1l-0.2,0.1l-0.2-0.1c-0.1,0-0.1-0.1-0.2-0.1c0,0-0.1,0-0.1,0c0,0-0.1,0-0.1,0.1c0,0,0,0,0,0c0,0.1,0.1,0.1,0.2,0.2l0.6,0.5
	c0.1,0.1,0.2,0.1,0.3,0.2c0.1,0,0.1,0,0.2,0c0.1,0,0.1,0,0-0.1c-0.1-0.1-0.1-0.1-0.2-0.2l-0.2-0.1H26l-0.1-0.1l0.3-0.1l0.8,0.6h-0.1
	l-0.1-0.1c0,0.1,0,0.1-0.1,0.2c-0.1,0-0.2,0-0.3,0c-0.2,0-0.3-0.1-0.4-0.2L25.3,58.5z"/>
<path d="M26.3,57.7l0.3-0.1c0.1-0.1,0.3-0.1,0.4,0c0.1,0,0.2,0.1,0.3,0.2l0.2,0.2c0.1,0.1,0.1,0.2,0.1,0.2s0,0.1-0.1,0.1l-0.1,0.1
	l0.6,0.4l-0.2,0.1L26.3,57.7z M27.2,57.8c-0.1-0.1-0.2-0.1-0.2-0.2c-0.1,0-0.1,0-0.2,0h-0.1l0.6,0.5h0.1c0.1,0,0.1,0,0-0.1
	C27.3,58,27.3,57.9,27.2,57.8L27.2,57.8z"/>
<path d="M27.3,57.3l0.2-0.1l1.7,1L29,58.2l-0.3-0.2l-0.3,0.1l0.2,0.2l-0.2,0.1L27.3,57.3z M28.3,58.1l0.3-0.1l-0.9-0.5l0,0
	L28.3,58.1z"/>
<path d="M28.4,57.3l-0.1-0.1c-0.1-0.1-0.1-0.1-0.2-0.2c0-0.1,0-0.1,0.2-0.2c0.2-0.1,0.3-0.1,0.5,0c0.1,0,0.2,0.1,0.2,0.2l0.1,0.1
	l-0.2,0.1l-0.1-0.1L28.6,57h-0.1h-0.1c0,0-0.1,0-0.1,0.1c0,0,0.1,0.1,0.1,0.1l0.2,0.1h0.1h0.1h0.2c0.2,0,0.4,0.1,0.6,0.2
	c0.1,0.1,0.2,0.1,0.2,0.2c0,0.1,0,0.1-0.2,0.2c-0.1,0.1-0.3,0.1-0.5,0c-0.1,0-0.2-0.1-0.3-0.2l0,0l-0.1-0.1l0.2-0.1l0.1,0.1
	c0.1,0.1,0.2,0.1,0.2,0.2c0.1,0,0.1,0,0.2,0c0,0,0.1,0,0.1-0.1c0,0,0-0.1-0.1-0.1l-0.1-0.1c-0.1-0.1-0.3-0.1-0.4-0.2h-0.2
	C28.7,57.4,28.6,57.4,28.4,57.3z"/>
<path d="M29.3,57c-0.1,0-0.1-0.1-0.1-0.1c-0.1,0-0.1-0.1-0.2-0.2c0-0.1,0-0.1,0.2-0.2c0.2-0.1,0.3-0.1,0.5,0l0.2,0.2l0.1,0.1
	l-0.2,0.1l-0.1-0.1l-0.2-0.1h-0.1h-0.1c0,0-0.1,0-0.1,0.1c0,0,0.1,0.1,0.1,0.1l0.2,0.1h0.1h0.1h0.2c0.2,0,0.4,0.1,0.6,0.2
	c0.1,0.1,0.2,0.1,0.2,0.2c0,0.1,0,0.1-0.2,0.2c-0.1,0.1-0.3,0.1-0.5,0c-0.1,0-0.2-0.1-0.3-0.2l0,0l-0.1-0.1l0.2-0.1l0.1,0.1l0.2,0.2
	c0.1,0,0.1,0,0.2,0c0,0,0.1,0,0.1-0.1c0,0,0-0.1,0-0.1l-0.1-0.1c-0.1-0.1-0.3-0.1-0.4-0.2h-0.2C29.6,57.1,29.4,57,29.3,57z"/>
<polygon class="st0" points="60.6,54.6 27.9,67.8 26.5,66.8 59.2,53.5 "/>
<polygon class="st0" points="58.2,52.7 52,55.3 49,52.9 55.2,50.4 "/>
<polygon class="st0" points="28.9,64.6 25.5,66 22.5,63.6 25.9,62.3 "/>
<polygon class="st0" points="49.4,56.3 47.7,57 44.7,54.7 46.4,54 "/>
<path class="st4" d="M23.5,58.1L7.2,48.5c-1.2-0.7-1-1.9,0.4-2.7l23.5-13.3c1.5-0.8,3.2-0.9,4.7-0.2l16.2,9.6c1.2,0.7,1,1.9-0.4,2.7
	L28.2,57.9C26.7,58.7,25,58.8,23.5,58.1z"/>
<path class="st1" d="M23.4,59.8L7.2,50.2c-1.2-0.7-1-1.9,0.4-2.7l23.6-13.3c1.5-0.8,3.2-0.9,4.7-0.2l16.2,9.6c1.2,0.7,1,1.9-0.4,2.7
	L28.2,59.7C26.7,60.5,25,60.5,23.4,59.8z"/>
<path class="st0" d="M25.5,58.9c-0.8,0-1.5-0.2-2.2-0.5L7.1,48.7c-0.6-0.3-1-0.8-1-1.5c0.1-0.8,0.6-1.5,1.3-1.8L31,32.2
	c1.5-0.8,3.4-0.9,5-0.2l16.2,9.6c0.6,0.3,0.9,0.8,1,1.5c-0.1,0.8-0.6,1.5-1.3,1.8L28.4,58.2C27.5,58.7,26.5,58.9,25.5,58.9z
	 M23.6,57.9c1.4,0.6,3.1,0.6,4.5-0.2l23.5-13.3c0.7-0.4,1-0.8,1-1.3c0-0.4-0.3-0.8-0.7-0.9l-16.2-9.6c-1.4-0.6-3.1-0.6-4.5,0.2
	L7.7,46c-0.7,0.4-1,0.8-1,1.3c0,0.4,0.3,0.8,0.7,0.9L23.6,57.9z"/>
<polygon class="st3" points="28,56.3 22.5,53 27.2,50.4 32.8,53.7 "/>
<path class="st0" d="M28,56.7L21.9,53l5.3-3l6.1,3.6L28,56.7z M23,53l5.1,3l4.2-2.4l-5.1-3L23,53z"/>
<polygon class="st5" points="28,55 24.8,53.1 27.3,51.7 30.4,53.6 "/>
<path class="st0" d="M28,55.3l-3.7-2.2l3-1.7l3.7,2.2L28,55.3z M25.4,53.1l2.6,1.5l1.9-1.1L27.3,52L25.4,53.1z"/>
<path class="st0" d="M20,55.8c-1.4,0-2.7-0.3-3.9-1c-1.3-0.5-2-1.9-1.5-3.2c0.3-0.7,0.8-1.3,1.5-1.5c2.5-1.2,5.3-1.2,7.8,0.1
	c1.3,0.5,2,1.9,1.5,3.2c-0.3,0.7-0.8,1.3-1.5,1.5l0,0C22.7,55.5,21.4,55.9,20,55.8z M20.1,49.7c-1.3,0-2.5,0.3-3.7,0.8
	c-1.1,0.4-1.7,1.6-1.3,2.7c0.2,0.6,0.7,1.1,1.3,1.3c2.3,1.2,5,1.2,7.4,0.1l0,0c1.1-0.4,1.7-1.6,1.3-2.7c-0.2-0.6-0.7-1.1-1.3-1.3
	C22.6,50,21.4,49.7,20.1,49.7L20.1,49.7z"/>
<path class="st0" d="M20,55c-1,0-2-0.2-2.9-0.7c-1-0.4-1.5-1.5-1.2-2.5c0.2-0.5,0.6-1,1.2-1.2c1.9-0.9,4-0.9,5.9,0.1
	c1,0.4,1.5,1.5,1.2,2.5c-0.2,0.5-0.6,1-1.2,1.2l0,0C22,54.8,21,55.1,20,55z M20,50.4c-0.9,0-1.9,0.2-2.7,0.6c-0.8,0.3-1.2,1.1-1,1.9
	c0.1,0.5,0.5,0.8,1,1c1.7,0.9,3.7,0.9,5.4,0.1c0.8-0.3,1.2-1.1,1-1.9c-0.1-0.5-0.5-0.8-1-1C21.9,50.7,21,50.4,20,50.4L20,50.4z"/>
<path class="st3" d="M30.4,50.9l-0.2-0.4l0.9-0.5c0.1-0.1,0.2-0.2,0.2-0.3c0-0.1-0.1-0.2-0.2-0.3l-0.1-0.1c-0.4-0.2-1-0.2-1.4,0
	l-0.1,0.1c-0.6,0.3-1.3,0.3-1.9,0l-0.1-0.1c-0.4-0.1-0.6-0.6-0.4-0.9c0.1-0.2,0.2-0.3,0.4-0.4l0.1-0.1c0.1-0.1,0.2-0.2,0.2-0.3
	s-0.1-0.2-0.2-0.3h-0.1c-0.4-0.2-1-0.2-1.4,0l-0.1,0.1c-0.6,0.3-1.3,0.3-1.9,0c-0.3-0.1-0.4-0.4-0.4-0.7c0-0.3,0.2-0.6,0.5-0.8
	l0.1,0c0.1-0.1,0.2-0.2,0.2-0.3s-0.1-0.2-0.2-0.3l-0.1,0c-0.4-0.2-1-0.2-1.4,0l-0.9,0.5l-0.2-0.4l0.9-0.5c0.6-0.3,1.3-0.3,1.9,0
	l0.1,0.1c0.3,0.1,0.4,0.4,0.4,0.7c0,0.3-0.2,0.6-0.5,0.7l-0.1,0c-0.1,0.1-0.2,0.2-0.2,0.3c0,0.1,0.1,0.2,0.2,0.3
	c0.4,0.2,1,0.2,1.4,0l0.1-0.1c0.6-0.3,1.3-0.3,1.9,0h0.1c0.3,0.1,0.4,0.4,0.5,0.7c0,0.3-0.2,0.5-0.5,0.7l-0.1,0.1
	c-0.1,0.1-0.2,0.2-0.2,0.3c0,0.1,0.1,0.2,0.2,0.3l0.1,0.1c0.4,0.2,1,0.2,1.4,0l0.1-0.1c0.6-0.3,1.3-0.3,1.9,0l0.1,0.1
	c0.3,0.1,0.4,0.4,0.5,0.7c0,0.3-0.2,0.5-0.5,0.7L30.4,50.9z"/>
<path class="st0" d="M34.2,52.4L33.9,52l1-0.6c0.2-0.1,0.3-0.2,0.3-0.3s-0.1-0.2-0.3-0.3l-0.1-0.1c-0.5-0.3-1.1-0.3-1.6,0l-0.1,0.1
	c-0.7,0.3-1.5,0.3-2.1,0l-0.1-0.1c-0.4-0.2-0.6-0.7-0.4-1.1c0.1-0.2,0.2-0.4,0.4-0.4L31,49c0.2-0.1,0.3-0.2,0.3-0.3
	s-0.1-0.2-0.2-0.3h-0.1c-0.5-0.3-1.1-0.3-1.6,0l-0.1,0.1c-0.7,0.3-1.5,0.3-2.1,0c-0.4-0.2-0.6-0.6-0.5-1.1c0.1-0.2,0.3-0.4,0.5-0.5
	l0.1-0.1c0.2-0.1,0.3-0.2,0.3-0.3s-0.1-0.2-0.3-0.3l-0.1-0.1c-0.5-0.3-1.1-0.3-1.6,0l-1,0.6l-0.2-0.4l1-0.6c0.7-0.3,1.5-0.3,2.1,0
	l0.1,0.1c0.3,0.1,0.5,0.4,0.5,0.8c0,0.3-0.2,0.6-0.5,0.8l-0.1,0.1c-0.1,0.1-0.2,0.2-0.3,0.3c0,0.1,0.1,0.2,0.3,0.3
	c0.5,0.3,1.1,0.3,1.6,0l0.1-0.1c0.7-0.3,1.5-0.3,2.1,0h0.1c0.3,0.1,0.5,0.4,0.5,0.8c0,0.3-0.2,0.6-0.5,0.8l-0.1,0.1
	c-0.2,0.1-0.3,0.2-0.3,0.3s0.1,0.2,0.2,0.3l0.1,0.1c0.5,0.3,1.1,0.3,1.6,0l0.1-0.1c0.7-0.3,1.5-0.3,2.1,0l0.1,0.1
	c0.4,0.2,0.6,0.6,0.5,1.1c-0.1,0.2-0.3,0.4-0.5,0.5L34.2,52.4z"/>
<path class="st3" d="M61.9,23.4l-31.3-18c-0.6-0.4-1.3-0.5-2-0.3l0,0l-0.2,0.1l-6,3.5c-0.1,0-0.1,0.2-0.1,0.2c0,0,0,0.1,0.1,0.1
	l3,1.3l2.3,3.1V27c0.1,2.1,1.2,4,2.9,5.1l5.8,3.3c0.7,0.4,1.1,1.2,1.2,2v4c0,0.9,0.9,1.9,1.5,1.6l4.3-2.5c0.8-0.3,1.6-0.2,2.3,0.2
	l3.1,1.8l8.5,11.7l6.9-4h0.1c0.5-0.4,0.7-1.1,0.7-1.8v-20C64.7,26.5,63.6,24.6,61.9,23.4z"/>
<path class="st1" d="M64.9,30.2c-0.4-1.7-1.4-3.2-2.8-4.1L30.8,8c-0.6-0.4-1.3-0.5-2-0.2l-0.2,0.1l-3.8,2.2l0.6,0.3l2.3,3.1V16
	l0.1,0.2v11.7c0.4,1.7,1.4,3.2,2.8,4.1l5.8,3.3c0.7,0.4,1.1,1.2,1.2,2v2.1c0.1,0.2,0.1,0.4,0.1,0.6v1.8c0.3,0.7,0.9,1.3,1.4,1
	l4.3-2.5c0.8-0.3,1.6-0.2,2.3,0.2l3.1,1.8l8.5,11.7l6.9-4l0,0c0.5-0.4,0.7-1.1,0.7-1.8L64.9,30.2z"/>
<path class="st0" d="M64.7,27.7L64.7,27.7l-6.9,4L46,29.2l-3.1-1.8c-0.7-0.5-1.6-0.6-2.3-0.2l-1-6.7c-0.6,0.3-1.5-0.7-1.5-1.6
	L32.9,20c0-0.3-2.4-0.5-5.1-0.6V27c0.1,2.1,1.2,4,3,5.1l5.8,3.3c0.7,0.4,1.1,1.2,1.2,2v4c0,0.9,0.9,1.9,1.5,1.6l4.3-2.5
	c0.8-0.3,1.6-0.2,2.3,0.2l3.1,1.8l8.5,11.7l6.9-4h0.1c0.5-0.5,0.7-1.1,0.7-1.8v-20c0-0.3,0-0.7-0.1-1C64.8,27.6,64.7,27.6,64.7,27.7
	z"/>
<path class="st0" d="M56.8,54.2l-8.2-11.4l-3-1.7c-0.6-0.4-1.3-0.5-1.9-0.2l-4.3,2.5c-0.3,0.2-0.7,0.1-1-0.1c-0.6-0.4-1-1.1-1.1-1.9
	v-4c0-0.7-0.4-1.3-1-1.7l-5.8-3.3c-1.8-1.2-3-3.2-3.1-5.4V13.7l-2.1-2.9l-2.9-1.3c-0.2-0.1-0.3-0.3-0.3-0.5c0-0.2,0.1-0.4,0.3-0.5
	l6.1-3.5c0.1-0.1,0.2-0.1,0.2-0.1c0.8-0.3,1.6-0.2,2.3,0.3l31.2,18c1.9,1.2,3,3.2,3.2,5.5v19.9c0.1,0.8-0.2,1.6-0.8,2.1l-0.1,0.1
	l-6.6,3.8C57.4,54.6,57,54.5,56.8,54.2z M44.2,40c0.6,0,1.2,0.2,1.7,0.5l3.2,1.9l8.3,11.4l6.6-3.8c0.4-0.4,0.6-0.9,0.5-1.5V28.5
	c-0.1-1.9-1.1-3.7-2.8-4.8l-31.3-18c-0.5-0.3-1.1-0.4-1.6-0.2c-0.1,0-0.1,0.1-0.2,0.1l-5.8,3.3l2.8,1.2l2.4,3.3V27
	c0.1,1.9,1.1,3.7,2.8,4.8l5.8,3.3c0.8,0.5,1.3,1.4,1.4,2.3v4c0,0.5,0.3,0.9,0.7,1.2c0.1,0.1,0.2,0.1,0.2,0.1l4.3-2.5
	C43.5,40.1,43.9,40,44.2,40z"/>
<path class="st6" d="M24.2,9.1l31.3,18c1.7,1.1,2.8,3,2.9,5.1v19.9c0,1.9-1.3,2.7-2.9,1.7l-16.2-9.3c-0.7-0.5-1.6-0.6-2.3-0.2
	l-4.3,2.5c-0.5,0.3-1.5-0.7-1.5-1.6v-4c0-0.8-0.5-1.6-1.1-2l-5.8-3.3c-1.7-1.1-2.8-3-2.9-5.1V10.9C21.3,9,22.6,8.2,24.2,9.1z"/>
<path class="st0" d="M56.8,54.7c-0.5,0-1-0.2-1.5-0.5l-16.2-9.3c-0.6-0.4-1.3-0.5-1.9-0.2l-4.3,2.5c-0.3,0.2-0.7,0.1-1-0.1
	c-0.6-0.4-1-1.1-1.1-1.9v-4c-0.1-0.7-0.4-1.3-1-1.7L24,36.2c-1.9-1.2-3-3.2-3.1-5.4V10.9c-0.1-0.9,0.3-1.7,1-2.2
	c0.8-0.4,1.7-0.3,2.5,0.2l31.3,18c1.9,1.2,3,3.2,3.1,5.4v19.9c0.1,0.9-0.3,1.8-1.1,2.3C57.4,54.6,57.1,54.7,56.8,54.7z M37.8,43.7
	c0.6,0,1.2,0.2,1.7,0.5l16.2,9.4c0.6,0.5,1.5,0.5,2-0.1c0.3-0.3,0.5-0.8,0.3-1.3V32.3c-0.1-1.9-1.1-3.7-2.8-4.8L24,9.5
	c-0.5-0.4-1.1-0.5-1.7-0.2c-0.5,0.4-0.8,1-0.7,1.6v19.9c0.1,1.9,1.1,3.7,2.8,4.8l5.8,3.3c0.8,0.5,1.3,1.4,1.3,2.3v4
	c0,0.5,0.3,0.9,0.7,1.2c0.1,0.1,0.1,0.1,0.2,0.1l4.3-2.5C37.1,43.8,37.4,43.7,37.8,43.7L37.8,43.7z"/>
<path class="st3" d="M48,33c-0.7-3.3-2.5-6.3-4.9-8.5c-2.8-2.5-5.3-3.2-7.1-2.4l-3.3,2c-0.1,0.1-0.2,0.3-0.1,0.4l1.2,2
	c0,0.1,0,0.3,0,0.4c0.3,5.3,3.1,10.1,7.5,13c0.3,0.2,0.6,0.3,0.9,0.5l1,1.7c0.1,0.2,0.3,0.2,0.5,0.1c0,0,0,0,0,0l2.7-1.7
	C48,39.3,48.8,36.7,48,33z"/>
<path class="st3" d="M48.3,34.7c-0.7-3.3-2.4-6.3-4.9-8.5c-2.8-2.6-5.3-3.2-7.1-2.4l-3.3,2c-0.1,0.1-0.2,0.3-0.1,0.4l1.2,2
	c0,0.1,0,0.3,0,0.4c0.3,5.3,3.1,10.1,7.5,13c0.3,0.2,0.6,0.3,0.9,0.5l1,1.7c0.1,0.2,0.3,0.2,0.5,0.1l2.7-1.7
	C48.4,41,49.2,38.4,48.3,34.7z"/>
<path class="st1" d="M46.4,40.5c1.5-1,2.2-3.2,1.8-6.3c-0.8-3.1-2.5-5.8-4.8-8c-2.8-2.5-5.3-3.2-7.1-2.4l-3,1.8l0.5,0.9
	c0,0.1,0,0.3,0,0.4s0,0.5,0,0.7l0.3,0.5c0,0.1,0,0.3,0,0.4c0,0.5,0,1,0.1,1.5c1,3.9,3.8,7.9,7.1,9.8c0.3,0.2,0.6,0.3,0.9,0.5l1,1.7
	c0.1,0.2,0.3,0.2,0.5,0.1L46.4,40.5z"/>
<path class="st0" d="M48,33c0-0.2-0.1-0.5-0.2-0.8c-0.3,0.8-0.8,1.5-1.4,2l-2.7,1.7c-0.2,0.1-0.4,0-0.5-0.1l-1-1.7
	c-0.3-0.1-0.6-0.3-0.9-0.5c-3.4-2-6.3-6.3-7.2-10.4L32.7,24c-0.1,0.1-0.2,0.3-0.1,0.4c0,0,0,0,0,0l1.2,2c0,0.1,0,0.3,0,0.4
	c0.3,5.3,3.1,10.1,7.5,13c0.3,0.2,0.6,0.3,0.9,0.5l1,1.7c0.1,0.2,0.3,0.2,0.5,0.1c0,0,0,0,0,0l2.7-1.7C48.1,39.3,48.8,36.7,48,33z"
	/>
<path class="st0" d="M43.5,42.6c-0.3,0-0.5-0.1-0.6-0.3l-1-1.6c-0.3-0.1-0.6-0.3-0.9-0.4c-4.6-3-7.4-7.9-7.7-13.4c0-0.1,0-0.2,0-0.3
	l0,0l-1.2-1.9c-0.2-0.3-0.1-0.7,0.2-0.9c0,0,0,0,0,0l3.3-2c2.1-1,4.8-0.1,7.6,2.5c2.5,2.3,4.3,5.4,5,8.7l0,0
	c0.8,3.6,0.2,6.5-1.7,7.9l0,0c-0.3,0.2-0.9,0.6-2.7,1.8C43.7,42.6,43.6,42.6,43.5,42.6z M32.9,24.3l1.2,2v0.3c0,0.1,0,0.2,0,0.3
	c0.3,5.2,3,9.9,7.3,12.7c0.3,0.2,0.6,0.3,0.9,0.5h0.1l1.1,1.8c0,0,2.5-1.6,2.7-1.7c1.6-1.2,2.1-3.8,1.4-7.1l0,0
	c-0.7-3.2-2.4-6.1-4.8-8.3c-2.5-2.3-4.9-3.2-6.7-2.4L32.9,24.3z"/>
<ellipse transform="matrix(0.866 -0.5 0.5 0.866 -11.5015 23.4527)" class="st1" cx="38" cy="33.2" rx="6.1" ry="10.6"/>
<path class="st0" d="M41.4,43.3c-1.3,0-2.5-0.4-3.5-1.1c-4.6-3-7.4-7.9-7.7-13.4c0-2.5,0.9-4.3,2.4-5.2c1.5-0.9,3.6-0.7,5.7,0.5
	c4.6,3,7.4,7.9,7.7,13.4c0,2.5-0.8,4.3-2.4,5.2C42.9,43.1,42.1,43.3,41.4,43.3z M34.7,23.8c-0.6,0-1.2,0.1-1.8,0.5
	c-1.3,0.8-2,2.4-2,4.5c0.3,5.2,3,9.9,7.3,12.7c1.9,1.1,3.6,1.3,4.9,0.5s2-2.4,2-4.5c-0.3-5.2-3-9.9-7.3-12.7
	C36.9,24.2,35.8,23.9,34.7,23.8z"/>
<path class="st3" d="M42.3,35.3l-2-1.2v-2.3c-0.1-1-0.6-1.9-1.4-2.4c-0.8-0.4-1.4-0.1-1.4,0.8v2.3l-2-1.1c-0.8-0.5-1.4-0.1-1.4,0.8
	c0.1,1,0.6,1.9,1.4,2.4l2,1.2V38c0.1,1,0.6,1.9,1.4,2.4c0.8,0.4,1.4,0.1,1.4-0.8v-2.3l2,1.2c0.8,0.5,1.4,0.1,1.4-0.8
	C43.6,36.7,43.1,35.8,42.3,35.3z"/>
<path class="st0" d="M38.6,39.5c-0.3,0-0.6-0.1-0.8-0.2c-0.9-0.6-1.5-1.6-1.6-2.8v-2.1l-1.8-1c-0.9-0.6-1.5-1.6-1.6-2.7
	c0-0.5,0.2-1,0.6-1.2c0.4-0.2,1-0.2,1.4,0.1l1.4,0.8v-1.7c-0.1-0.7,0.3-1.3,1-1.4c0.4-0.1,0.7,0,1,0.3c0.9,0.6,1.5,1.6,1.6,2.7v2.1
	l1.8,1c0.9,0.6,1.5,1.6,1.6,2.8c0.1,0.7-0.3,1.3-1,1.4c-0.4,0.1-0.7,0-1-0.3l-1.4-0.8v1.7c0,0.5-0.2,1-0.6,1.2
	C39,39.4,38.8,39.5,38.6,39.5z M34,30c-0.1,0-0.1,0-0.2,0c-0.2,0.1-0.2,0.4-0.2,0.6c0.1,0.8,0.5,1.6,1.2,2.1L37,34v2.5
	c0.1,0.8,0.5,1.6,1.2,2.1c0.2,0.1,0.4,0.2,0.6,0.1c0.2-0.1,0.2-0.4,0.2-0.6v-3l2.6,1.5c0.2,0.2,0.5,0.2,0.7,0
	c0.1-0.1,0.2-0.3,0.1-0.5c-0.1-0.8-0.5-1.6-1.2-2.1L39,32.8v-2.5c-0.1-0.8-0.5-1.6-1.2-2.1c-0.2-0.1-0.4-0.2-0.6-0.1
	c-0.2,0.1-0.2,0.4-0.2,0.6v3l-2.6-1.5C34.3,30.1,34.1,30,34,30z"/>
</svg>
