<?xml version="1.0" encoding="utf-8"?>
<!-- Generator: Adobe Illustrator 25.2.3, SVG Export Plug-In . SVG Version: 6.00 Build 0)  -->
<svg version="1.1" id="Layer_1" xmlns="http://www.w3.org/2000/svg" xmlns:xlink="http://www.w3.org/1999/xlink" x="0px" y="0px"
	 viewBox="0 0 403 63" style="enable-background:new 0 0 403 63;" xml:space="preserve">
<path fill="currentColor" d="M15.9,1.1H0.1v60.9h10.6V38.6h5.3c10.1,0,15.5-4.5,15.5-13V14.1C31.4,5.6,26.1,1.1,15.9,1.1z M10.7,10.5h4.9
	c3.6,0,5.2,1.6,5.2,5.2V24c0,3.6-1.6,5.2-5.2,5.2h-4.9V10.5z"/>
<path fill="currentColor" d="M70.2,24.9V14.1c0-8.5-5.3-13-15.5-13H38.9v60.8h10.6v-24h4.5l7.7,24h10.8l-8.7-25.7
	C68.1,34.2,70.2,30.4,70.2,24.9z M59.6,15.7v7.8c0,3.6-1.5,5.2-5.2,5.2h-4.9V10.5h4.9C58.1,10.5,59.6,12,59.6,15.7z"/>
<path fill="currentColor" d="M94.7,0.4H94c-10.2,0-15.4,4.4-15.4,13.1v36.2c0,8.5,5.3,13,15.5,13h0.7c10.1,0,15.5-4.5,15.5-13V13.4
	C110.2,4.9,104.8,0.4,94.7,0.4z M99.6,15v33c0,3.6-1.6,5.2-5.2,5.2s-5.2-1.6-5.2-5.2V15c0-3.6,1.6-5.2,5.2-5.2S99.6,11.3,99.6,15z"
	/>
<polygon fill="currentColor" points="140.9,35.4 129.5,1.1 119.5,1.1 119.5,61.9 129.4,61.9 129.4,26.8 137.9,53.2 144,53.2 152.5,26.8 
	152.5,61.9 162.8,61.9 162.8,1.1 152.4,1.1 "/>
<path fill="currentColor" d="M188.3,0.4h-0.7c-10.3,0-15.5,4.4-15.5,13.1v36.2c0,8.5,5.3,13,15.5,13h0.7c10.1,0,15.5-4.5,15.5-13V13.4
	C203.7,4.9,198.4,0.4,188.3,0.4z M193.1,15v33c0,3.6-1.6,5.2-5.2,5.2s-5.2-1.6-5.2-5.2V15c0-3.6,1.6-5.2,5.2-5.2
	S193.1,11.3,193.1,15z"/>
<polygon fill="currentColor" points="209.3,10.5 219.4,10.5 219.4,61.9 230,61.9 230,10.5 240.1,10.5 240.1,1.1 209.3,1.1 "/>
<rect x="246.7" y="1.1" fill="currentColor" width="10.6" height="60.9"/>
<path fill="currentColor" d="M283.1,0.4h-0.7c-10.1,0-15.5,4.5-15.5,13.1v36.2c0,8.8,5.1,13,15.5,13h0.7c10.3,0,15.5-4.4,15.5-13V30.3h-16.5
	v9.1h5.9V48c0,3.6-1.5,5.2-5.2,5.2s-5.2-1.6-5.2-5.2V15c0-3.6,1.6-5.2,5.2-5.2s5.2,1.5,5.2,5.2v7.4h10.6v-8.9
	C298.6,4.9,293.2,0.4,283.1,0.4z"/>
<path fill="currentColor" d="M321,0.4h-0.7c-10.3,0-15.5,4.4-15.5,13.1v36.2c0,8.5,5.3,13,15.5,13h0.7c10.1,0,15.5-4.5,15.5-13V13.4
	C336.5,4.9,331.1,0.4,321,0.4z M325.9,15v33c0,3.6-1.6,5.2-5.2,5.2s-5.2-1.6-5.2-5.2V15c0-3.6,1.6-5.2,5.2-5.2S325.9,11.3,325.9,15z
	"/>
<polygon fill="currentColor" points="372.8,1.3 346.5,1.3 376.7,31.5 346.5,61.7 372.8,61.7 403,31.5 "/>
<circle fill="currentColor" cx="354.5" cy="32" r="7.9"/>
</svg>
